<svg width="360" height="160" viewBox="0 0 360 160" fill="none" xmlns="http://www.w3.org/2000/svg">
<rect width="360" height="160" fill="white"/>
<path d="M30.8442 88.1182H31.625C31.5615 88.7402 31.3901 89.2777 31.1108 89.7305C30.8315 90.179 30.4507 90.5239 29.9683 90.7651C29.4858 91.0063 28.904 91.127 28.2227 91.127C27.6979 91.127 27.2218 91.0275 26.7944 90.8286C26.3713 90.6297 26.0073 90.3483 25.7026 89.9844C25.3979 89.6162 25.1631 89.1761 24.998 88.6641C24.833 88.152 24.7505 87.5828 24.7505 86.9565V85.8013C24.7505 85.175 24.833 84.6079 24.998 84.1001C25.1631 83.5881 25.4001 83.1479 25.709 82.7798C26.0179 82.4116 26.3882 82.1281 26.8198 81.9292C27.2515 81.7303 27.7381 81.6309 28.2798 81.6309C28.9357 81.6309 29.5028 81.7515 29.981 81.9927C30.4591 82.2297 30.8358 82.5724 31.1108 83.021C31.3901 83.4696 31.5615 84.0112 31.625 84.646H30.8442C30.785 84.1466 30.6538 83.7235 30.4507 83.3765C30.2476 83.0295 29.9661 82.765 29.6064 82.583C29.251 82.3968 28.8088 82.3037 28.2798 82.3037C27.8481 82.3037 27.4631 82.3862 27.1245 82.5513C26.786 82.7163 26.4982 82.9533 26.2612 83.2622C26.0243 83.5669 25.8423 83.9329 25.7153 84.3604C25.5926 84.7878 25.5312 85.2638 25.5312 85.7886V86.9565C25.5312 87.4644 25.5905 87.932 25.709 88.3594C25.8275 88.7868 26.001 89.1571 26.2295 89.4702C26.4622 89.7834 26.7458 90.0267 27.0801 90.2002C27.4144 90.3737 27.7952 90.4604 28.2227 90.4604C28.7686 90.4604 29.2235 90.3737 29.5874 90.2002C29.9556 90.0225 30.2412 89.7601 30.4443 89.4131C30.6475 89.0661 30.7808 88.6344 30.8442 88.1182ZM32.9326 87.6738V87.4644C32.9326 86.965 33.0046 86.5037 33.1484 86.0806C33.2923 85.6574 33.4976 85.2913 33.7642 84.9824C34.035 84.6735 34.3587 84.4344 34.7354 84.2651C35.112 84.0916 35.5309 84.0049 35.9922 84.0049C36.4577 84.0049 36.8787 84.0916 37.2554 84.2651C37.632 84.4344 37.9557 84.6735 38.2266 84.9824C38.4974 85.2913 38.7048 85.6574 38.8486 86.0806C38.9925 86.5037 39.0645 86.965 39.0645 87.4644V87.6738C39.0645 88.1732 38.9925 88.6344 38.8486 89.0576C38.7048 89.4766 38.4974 89.8405 38.2266 90.1494C37.96 90.4583 37.6383 90.6995 37.2617 90.873C36.8851 91.0423 36.4661 91.127 36.0049 91.127C35.5394 91.127 35.1183 91.0423 34.7417 90.873C34.3651 90.6995 34.0413 90.4583 33.7705 90.1494C33.4997 89.8405 33.2923 89.4766 33.1484 89.0576C33.0046 88.6344 32.9326 88.1732 32.9326 87.6738ZM33.688 87.4644V87.6738C33.688 88.0505 33.7388 88.408 33.8403 88.7466C33.9419 89.0809 34.09 89.3792 34.2847 89.6416C34.4793 89.8997 34.7205 90.1029 35.0083 90.251C35.2961 90.3991 35.6283 90.4731 36.0049 90.4731C36.3773 90.4731 36.7052 90.3991 36.9888 90.251C37.2765 90.1029 37.5177 89.8997 37.7124 89.6416C37.9071 89.3792 38.0531 89.0809 38.1504 88.7466C38.252 88.408 38.3027 88.0505 38.3027 87.6738V87.4644C38.3027 87.092 38.252 86.7386 38.1504 86.4043C38.0531 86.07 37.9049 85.7716 37.7061 85.5093C37.5114 85.2469 37.2702 85.0396 36.9824 84.8872C36.6947 84.7349 36.3646 84.6587 35.9922 84.6587C35.6198 84.6587 35.2897 84.7349 35.002 84.8872C34.7184 85.0396 34.4772 85.2469 34.2783 85.5093C34.0837 85.7716 33.9355 86.07 33.834 86.4043C33.7367 86.7386 33.688 87.092 33.688 87.4644ZM41.356 85.5537V91H40.5942V84.1318H41.3242L41.356 85.5537ZM41.2163 87.1406L40.8481 86.9502C40.8735 86.5439 40.9497 86.1631 41.0767 85.8076C41.2078 85.4521 41.3898 85.139 41.6226 84.8682C41.8553 84.5973 42.1346 84.3857 42.4604 84.2334C42.7863 84.0811 43.1566 84.0049 43.5713 84.0049C43.9056 84.0049 44.2082 84.0514 44.479 84.1445C44.7541 84.2334 44.9868 84.3752 45.1772 84.5698C45.3719 84.7603 45.5221 85.0099 45.6279 85.3188C45.7337 85.6278 45.7866 85.998 45.7866 86.4297V91H45.0312V86.4551C45.0312 85.998 44.9593 85.6405 44.8154 85.3823C44.6758 85.1242 44.479 84.9401 44.2251 84.8301C43.9754 84.7201 43.6855 84.665 43.3555 84.665C42.9661 84.665 42.6361 84.7454 42.3652 84.9062C42.0986 85.0628 41.8807 85.2681 41.7114 85.522C41.5464 85.7716 41.4237 86.0404 41.3433 86.3281C41.2629 86.6117 41.2205 86.8825 41.2163 87.1406ZM45.7803 86.5439L45.2725 86.5566C45.2936 86.2223 45.3698 85.9028 45.501 85.5981C45.6364 85.2935 45.8205 85.0226 46.0532 84.7856C46.286 84.5444 46.5632 84.354 46.8848 84.2144C47.2106 84.0747 47.5767 84.0049 47.9829 84.0049C48.3384 84.0049 48.6558 84.0535 48.9351 84.1509C49.2144 84.244 49.4492 84.3942 49.6396 84.6016C49.8343 84.8047 49.9824 85.0649 50.084 85.3823C50.1855 85.6997 50.2363 86.0806 50.2363 86.5249V91H49.4746V86.5186C49.4746 86.0319 49.4027 85.6553 49.2588 85.3887C49.1191 85.1178 48.9245 84.9295 48.6748 84.8237C48.4251 84.7179 48.1331 84.665 47.7988 84.665C47.4688 84.6693 47.1789 84.7306 46.9292 84.8491C46.6795 84.9634 46.4701 85.1157 46.3008 85.3062C46.1357 85.4924 46.0088 85.6934 45.9199 85.9092C45.8353 86.125 45.7887 86.3366 45.7803 86.5439ZM51.7471 87.6738V87.4644C51.7471 86.965 51.819 86.5037 51.9629 86.0806C52.1068 85.6574 52.312 85.2913 52.5786 84.9824C52.8494 84.6735 53.1732 84.4344 53.5498 84.2651C53.9264 84.0916 54.3454 84.0049 54.8066 84.0049C55.2721 84.0049 55.6932 84.0916 56.0698 84.2651C56.4465 84.4344 56.7702 84.6735 57.041 84.9824C57.3118 85.2913 57.5192 85.6574 57.6631 86.0806C57.807 86.5037 57.8789 86.965 57.8789 87.4644V87.6738C57.8789 88.1732 57.807 88.6344 57.6631 89.0576C57.5192 89.4766 57.3118 89.8405 57.041 90.1494C56.7744 90.4583 56.4528 90.6995 56.0762 90.873C55.6995 91.0423 55.2806 91.127 54.8193 91.127C54.3538 91.127 53.9328 91.0423 53.5562 90.873C53.1795 90.6995 52.8558 90.4583 52.585 90.1494C52.3141 89.8405 52.1068 89.4766 51.9629 89.0576C51.819 88.6344 51.7471 88.1732 51.7471 87.6738ZM52.5024 87.4644V87.6738C52.5024 88.0505 52.5532 88.408 52.6548 88.7466C52.7563 89.0809 52.9045 89.3792 53.0991 89.6416C53.2938 89.8997 53.535 90.1029 53.8228 90.251C54.1105 90.3991 54.4427 90.4731 54.8193 90.4731C55.1917 90.4731 55.5197 90.3991 55.8032 90.251C56.091 90.1029 56.3322 89.8997 56.5269 89.6416C56.7215 89.3792 56.8675 89.0809 56.9648 88.7466C57.0664 88.408 57.1172 88.0505 57.1172 87.6738V87.4644C57.1172 87.092 57.0664 86.7386 56.9648 86.4043C56.8675 86.07 56.7194 85.7716 56.5205 85.5093C56.3258 85.2469 56.0846 85.0396 55.7969 84.8872C55.5091 84.7349 55.179 84.6587 54.8066 84.6587C54.4342 84.6587 54.1042 84.7349 53.8164 84.8872C53.5329 85.0396 53.2917 85.2469 53.0928 85.5093C52.8981 85.7716 52.75 86.07 52.6484 86.4043C52.5511 86.7386 52.5024 87.092 52.5024 87.4644ZM66.8037 89.7686V86.2266C66.8037 85.9007 66.736 85.6193 66.6006 85.3823C66.4652 85.1453 66.2663 84.9634 66.0039 84.8364C65.7415 84.7095 65.4178 84.646 65.0327 84.646C64.6772 84.646 64.3599 84.7095 64.0806 84.8364C63.8055 84.9591 63.5876 85.1263 63.4268 85.3379C63.2702 85.5452 63.1919 85.7759 63.1919 86.0298L62.4302 86.0234C62.4302 85.7653 62.4937 85.5156 62.6206 85.2744C62.7476 85.0332 62.9274 84.8174 63.1602 84.627C63.3929 84.4365 63.6701 84.2863 63.9917 84.1763C64.3175 84.062 64.6751 84.0049 65.0645 84.0049C65.5553 84.0049 65.987 84.0874 66.3594 84.2524C66.736 84.4175 67.0301 84.665 67.2417 84.9951C67.4533 85.3252 67.5591 85.7399 67.5591 86.2393V89.5591C67.5591 89.7961 67.576 90.0415 67.6099 90.2954C67.6479 90.5493 67.7008 90.7588 67.7686 90.9238V91H66.9624C66.9116 90.8477 66.8714 90.6572 66.8418 90.4287C66.8164 90.196 66.8037 89.9759 66.8037 89.7686ZM66.9814 87.001L66.9941 87.585H65.5024C65.1131 87.585 64.764 87.6209 64.4551 87.6929C64.1504 87.7606 63.8923 87.8621 63.6807 87.9976C63.4691 88.1287 63.3062 88.2874 63.1919 88.4736C63.0819 88.6598 63.0269 88.8714 63.0269 89.1084C63.0269 89.3538 63.0882 89.5781 63.2109 89.7812C63.3379 89.9844 63.5156 90.1473 63.7441 90.27C63.9769 90.3885 64.252 90.4478 64.5693 90.4478C64.9925 90.4478 65.3649 90.3695 65.6865 90.2129C66.0124 90.0563 66.2811 89.8511 66.4927 89.5972C66.7043 89.3433 66.846 89.0661 66.918 88.7656L67.248 89.2036C67.193 89.4152 67.0915 89.6331 66.9434 89.8574C66.7995 90.0775 66.6112 90.2848 66.3784 90.4795C66.1457 90.6699 65.8706 90.8265 65.5532 90.9492C65.2401 91.0677 64.8846 91.127 64.4868 91.127C64.0382 91.127 63.6468 91.0423 63.3125 90.873C62.9824 90.7038 62.7243 90.4731 62.5381 90.1812C62.3561 89.8849 62.2651 89.5506 62.2651 89.1782C62.2651 88.8397 62.3371 88.5371 62.481 88.2705C62.6248 87.9997 62.8322 87.7712 63.103 87.585C63.3781 87.3945 63.7082 87.2507 64.0933 87.1533C64.4826 87.0518 64.9185 87.001 65.4009 87.001H66.9814ZM73.9956 89.4131V84.1318H74.7573V91H74.0273L73.9956 89.4131ZM74.1353 88.1436L74.5288 88.1309C74.5288 88.5625 74.478 88.9603 74.3765 89.3242C74.2749 89.6882 74.1162 90.0055 73.9004 90.2764C73.6846 90.5472 73.4053 90.7567 73.0625 90.9048C72.7197 91.0529 72.3071 91.127 71.8247 91.127C71.4904 91.127 71.1836 91.0804 70.9043 90.9873C70.6292 90.89 70.3923 90.7376 70.1934 90.5303C69.9945 90.3229 69.84 90.0542 69.73 89.7241C69.6242 89.394 69.5713 88.9941 69.5713 88.5244V84.1318H70.3267V88.5371C70.3267 88.9053 70.3669 89.2121 70.4473 89.4575C70.5319 89.703 70.6462 89.8997 70.79 90.0479C70.9382 90.196 71.1074 90.3018 71.2979 90.3652C71.4883 90.4287 71.6935 90.4604 71.9136 90.4604C72.4722 90.4604 72.9123 90.3525 73.2339 90.1367C73.5597 89.9209 73.7904 89.6374 73.9258 89.2861C74.0654 88.9307 74.1353 88.5498 74.1353 88.1436ZM77.4995 85.5981V91H76.7441V84.1318H77.4678L77.4995 85.5981ZM77.3281 87.1406L76.9917 86.9502C77.0171 86.5439 77.0996 86.1631 77.2393 85.8076C77.3789 85.4521 77.5672 85.139 77.8042 84.8682C78.0454 84.5973 78.3268 84.3857 78.6484 84.2334C78.9743 84.0811 79.334 84.0049 79.7275 84.0049C80.0703 84.0049 80.3771 84.0514 80.6479 84.1445C80.9188 84.2376 81.1494 84.3857 81.3398 84.5889C81.5303 84.792 81.6742 85.0522 81.7715 85.3696C81.873 85.687 81.9238 86.0742 81.9238 86.5312V91H81.1621V86.5249C81.1621 86.0509 81.0965 85.6807 80.9653 85.4141C80.8341 85.1432 80.6479 84.9507 80.4067 84.8364C80.1655 84.7222 79.8799 84.665 79.5498 84.665C79.1859 84.665 78.8664 84.7454 78.5913 84.9062C78.3205 85.0628 78.092 85.2681 77.9058 85.522C77.7238 85.7716 77.5841 86.0404 77.4868 86.3281C77.3895 86.6117 77.3366 86.8825 77.3281 87.1406ZM87.8208 85.5981V91H87.0654V84.1318H87.7891L87.8208 85.5981ZM87.6494 87.1406L87.313 86.9502C87.3384 86.5439 87.4209 86.1631 87.5605 85.8076C87.7002 85.4521 87.8885 85.139 88.1255 84.8682C88.3667 84.5973 88.6481 84.3857 88.9697 84.2334C89.2956 84.0811 89.6553 84.0049 90.0488 84.0049C90.3916 84.0049 90.6984 84.0514 90.9692 84.1445C91.2401 84.2376 91.4707 84.3857 91.6611 84.5889C91.8516 84.792 91.9954 85.0522 92.0928 85.3696C92.1943 85.687 92.2451 86.0742 92.2451 86.5312V91H91.4834V86.5249C91.4834 86.0509 91.4178 85.6807 91.2866 85.4141C91.1554 85.1432 90.9692 84.9507 90.728 84.8364C90.4868 84.7222 90.2012 84.665 89.8711 84.665C89.5072 84.665 89.1877 84.7454 88.9126 84.9062C88.6418 85.0628 88.4132 85.2681 88.2271 85.522C88.0451 85.7716 87.9054 86.0404 87.8081 86.3281C87.7108 86.6117 87.6579 86.8825 87.6494 87.1406ZM93.7939 87.6738V87.4644C93.7939 86.965 93.8659 86.5037 94.0098 86.0806C94.1536 85.6574 94.3589 85.2913 94.6255 84.9824C94.8963 84.6735 95.2201 84.4344 95.5967 84.2651C95.9733 84.0916 96.3923 84.0049 96.8535 84.0049C97.319 84.0049 97.7401 84.0916 98.1167 84.2651C98.4933 84.4344 98.8171 84.6735 99.0879 84.9824C99.3587 85.2913 99.5661 85.6574 99.71 86.0806C99.8538 86.5037 99.9258 86.965 99.9258 87.4644V87.6738C99.9258 88.1732 99.8538 88.6344 99.71 89.0576C99.5661 89.4766 99.3587 89.8405 99.0879 90.1494C98.8213 90.4583 98.4997 90.6995 98.123 90.873C97.7464 91.0423 97.3275 91.127 96.8662 91.127C96.4007 91.127 95.9797 91.0423 95.603 90.873C95.2264 90.6995 94.9027 90.4583 94.6318 90.1494C94.361 89.8405 94.1536 89.4766 94.0098 89.0576C93.8659 88.6344 93.7939 88.1732 93.7939 87.6738ZM94.5493 87.4644V87.6738C94.5493 88.0505 94.6001 88.408 94.7017 88.7466C94.8032 89.0809 94.9513 89.3792 95.146 89.6416C95.3407 89.8997 95.5819 90.1029 95.8696 90.251C96.1574 90.3991 96.4896 90.4731 96.8662 90.4731C97.2386 90.4731 97.5666 90.3991 97.8501 90.251C98.1379 90.1029 98.3791 89.8997 98.5737 89.6416C98.7684 89.3792 98.9144 89.0809 99.0117 88.7466C99.1133 88.408 99.1641 88.0505 99.1641 87.6738V87.4644C99.1641 87.092 99.1133 86.7386 99.0117 86.4043C98.9144 86.07 98.7663 85.7716 98.5674 85.5093C98.3727 85.2469 98.1315 85.0396 97.8438 84.8872C97.556 84.7349 97.2259 84.6587 96.8535 84.6587C96.4811 84.6587 96.151 84.7349 95.8633 84.8872C95.5798 85.0396 95.3385 85.2469 95.1396 85.5093C94.945 85.7716 94.7969 86.07 94.6953 86.4043C94.598 86.7386 94.5493 87.092 94.5493 87.4644ZM105.429 81.25V91H104.674V81.25H105.429ZM105.258 87.1406L104.921 86.9502C104.947 86.5439 105.029 86.1631 105.169 85.8076C105.309 85.4521 105.497 85.139 105.734 84.8682C105.975 84.5973 106.257 84.3857 106.578 84.2334C106.904 84.0811 107.264 84.0049 107.657 84.0049C108 84.0049 108.307 84.0514 108.578 84.1445C108.848 84.2376 109.079 84.3857 109.27 84.5889C109.46 84.792 109.604 85.0522 109.701 85.3696C109.803 85.687 109.854 86.0742 109.854 86.5312V91H109.092V86.5249C109.092 86.0509 109.026 85.6807 108.895 85.4141C108.764 85.1432 108.578 84.9507 108.336 84.8364C108.095 84.7222 107.81 84.665 107.479 84.665C107.116 84.665 106.796 84.7454 106.521 84.9062C106.25 85.0628 106.022 85.2681 105.835 85.522C105.653 85.7716 105.514 86.0404 105.417 86.3281C105.319 86.6117 105.266 86.8825 105.258 87.1406ZM115.985 89.7686V86.2266C115.985 85.9007 115.918 85.6193 115.782 85.3823C115.647 85.1453 115.448 84.9634 115.186 84.8364C114.923 84.7095 114.599 84.646 114.214 84.646C113.859 84.646 113.542 84.7095 113.262 84.8364C112.987 84.9591 112.769 85.1263 112.608 85.3379C112.452 85.5452 112.374 85.7759 112.374 86.0298L111.612 86.0234C111.612 85.7653 111.675 85.5156 111.802 85.2744C111.929 85.0332 112.109 84.8174 112.342 84.627C112.575 84.4365 112.852 84.2863 113.173 84.1763C113.499 84.062 113.857 84.0049 114.246 84.0049C114.737 84.0049 115.169 84.0874 115.541 84.2524C115.918 84.4175 116.212 84.665 116.423 84.9951C116.635 85.3252 116.741 85.7399 116.741 86.2393V89.5591C116.741 89.7961 116.758 90.0415 116.792 90.2954C116.83 90.5493 116.882 90.7588 116.95 90.9238V91H116.144C116.093 90.8477 116.053 90.6572 116.023 90.4287C115.998 90.196 115.985 89.9759 115.985 89.7686ZM116.163 87.001L116.176 87.585H114.684C114.295 87.585 113.946 87.6209 113.637 87.6929C113.332 87.7606 113.074 87.8621 112.862 87.9976C112.651 88.1287 112.488 88.2874 112.374 88.4736C112.264 88.6598 112.208 88.8714 112.208 89.1084C112.208 89.3538 112.27 89.5781 112.393 89.7812C112.52 89.9844 112.697 90.1473 112.926 90.27C113.159 90.3885 113.434 90.4478 113.751 90.4478C114.174 90.4478 114.547 90.3695 114.868 90.2129C115.194 90.0563 115.463 89.8511 115.674 89.5972C115.886 89.3433 116.028 89.0661 116.1 88.7656L116.43 89.2036C116.375 89.4152 116.273 89.6331 116.125 89.8574C115.981 90.0775 115.793 90.2848 115.56 90.4795C115.327 90.6699 115.052 90.8265 114.735 90.9492C114.422 91.0677 114.066 91.127 113.668 91.127C113.22 91.127 112.828 91.0423 112.494 90.873C112.164 90.7038 111.906 90.4731 111.72 90.1812C111.538 89.8849 111.447 89.5506 111.447 89.1782C111.447 88.8397 111.519 88.5371 111.663 88.2705C111.806 87.9997 112.014 87.7712 112.285 87.585C112.56 87.3945 112.89 87.2507 113.275 87.1533C113.664 87.0518 114.1 87.001 114.583 87.001H116.163ZM122.892 89.248C122.892 89.0618 122.845 88.8778 122.752 88.6958C122.659 88.5138 122.479 88.3467 122.212 88.1943C121.95 88.042 121.563 87.9129 121.051 87.8071C120.67 87.7225 120.329 87.6273 120.029 87.5215C119.733 87.4157 119.483 87.2887 119.28 87.1406C119.077 86.9925 118.922 86.8148 118.816 86.6074C118.711 86.4001 118.658 86.1546 118.658 85.8711C118.658 85.6172 118.713 85.3781 118.823 85.1538C118.937 84.9253 119.098 84.7264 119.305 84.5571C119.517 84.3836 119.771 84.2482 120.067 84.1509C120.367 84.0535 120.704 84.0049 121.076 84.0049C121.605 84.0049 122.058 84.0959 122.435 84.2778C122.815 84.4556 123.105 84.6989 123.304 85.0078C123.507 85.3167 123.609 85.6659 123.609 86.0552H122.854C122.854 85.8182 122.784 85.5939 122.644 85.3823C122.509 85.1707 122.308 84.9972 122.041 84.8618C121.779 84.7264 121.457 84.6587 121.076 84.6587C120.683 84.6587 120.363 84.7179 120.118 84.8364C119.872 84.9549 119.692 85.1051 119.578 85.2871C119.468 85.4691 119.413 85.6574 119.413 85.8521C119.413 86.0044 119.436 86.144 119.483 86.271C119.534 86.3937 119.623 86.508 119.75 86.6138C119.881 86.7196 120.067 86.819 120.308 86.9121C120.549 87.0052 120.862 87.0962 121.248 87.1851C121.802 87.3078 122.255 87.458 122.606 87.6357C122.961 87.8092 123.224 88.0251 123.393 88.2832C123.562 88.5371 123.647 88.846 123.647 89.21C123.647 89.4935 123.588 89.7537 123.469 89.9907C123.351 90.2235 123.179 90.4245 122.955 90.5938C122.735 90.763 122.468 90.8942 122.155 90.9873C121.846 91.0804 121.499 91.127 121.114 91.127C120.535 91.127 120.044 91.0317 119.642 90.8413C119.244 90.6466 118.941 90.3927 118.734 90.0796C118.531 89.7622 118.429 89.4258 118.429 89.0703H119.185C119.21 89.4258 119.322 89.7072 119.521 89.9146C119.72 90.1177 119.963 90.2616 120.251 90.3462C120.543 90.4308 120.831 90.4731 121.114 90.4731C121.504 90.4731 121.829 90.416 122.092 90.3018C122.354 90.1875 122.553 90.0373 122.688 89.8511C122.824 89.6649 122.892 89.4639 122.892 89.248ZM131.074 90.4731C131.395 90.4731 131.696 90.4139 131.975 90.2954C132.259 90.1727 132.491 89.9928 132.673 89.7559C132.86 89.5146 132.965 89.2205 132.991 88.8735H133.714C133.693 89.3094 133.56 89.6987 133.314 90.0415C133.073 90.38 132.756 90.6466 132.362 90.8413C131.973 91.0317 131.543 91.127 131.074 91.127C130.596 91.127 130.172 91.0402 129.804 90.8667C129.44 90.6932 129.136 90.452 128.89 90.1431C128.645 89.8299 128.458 89.466 128.332 89.0513C128.209 88.6323 128.147 88.1816 128.147 87.6992V87.4326C128.147 86.9502 128.209 86.5016 128.332 86.0869C128.458 85.668 128.645 85.304 128.89 84.9951C129.136 84.682 129.44 84.4386 129.804 84.2651C130.168 84.0916 130.589 84.0049 131.067 84.0049C131.558 84.0049 131.998 84.1043 132.388 84.3032C132.781 84.5021 133.094 84.7835 133.327 85.1475C133.564 85.5114 133.693 85.943 133.714 86.4424H132.991C132.97 86.0742 132.872 85.7568 132.699 85.4902C132.525 85.2236 132.297 85.0184 132.013 84.8745C131.73 84.7306 131.414 84.6587 131.067 84.6587C130.678 84.6587 130.346 84.7349 130.071 84.8872C129.796 85.0353 129.571 85.2406 129.398 85.5029C129.229 85.7611 129.104 86.0573 129.023 86.3916C128.943 86.7217 128.903 87.0687 128.903 87.4326V87.6992C128.903 88.0674 128.941 88.4186 129.017 88.7529C129.097 89.083 129.222 89.3771 129.392 89.6353C129.565 89.8934 129.789 90.0986 130.064 90.251C130.344 90.3991 130.68 90.4731 131.074 90.4731ZM134.825 87.6738V87.4644C134.825 86.965 134.897 86.5037 135.041 86.0806C135.185 85.6574 135.39 85.2913 135.657 84.9824C135.928 84.6735 136.251 84.4344 136.628 84.2651C137.005 84.0916 137.424 84.0049 137.885 84.0049C138.35 84.0049 138.771 84.0916 139.148 84.2651C139.525 84.4344 139.848 84.6735 140.119 84.9824C140.39 85.2913 140.597 85.6574 140.741 86.0806C140.885 86.5037 140.957 86.965 140.957 87.4644V87.6738C140.957 88.1732 140.885 88.6344 140.741 89.0576C140.597 89.4766 140.39 89.8405 140.119 90.1494C139.853 90.4583 139.531 90.6995 139.154 90.873C138.778 91.0423 138.359 91.127 137.897 91.127C137.432 91.127 137.011 91.0423 136.634 90.873C136.258 90.6995 135.934 90.4583 135.663 90.1494C135.392 89.8405 135.185 89.4766 135.041 89.0576C134.897 88.6344 134.825 88.1732 134.825 87.6738ZM135.581 87.4644V87.6738C135.581 88.0505 135.631 88.408 135.733 88.7466C135.834 89.0809 135.983 89.3792 136.177 89.6416C136.372 89.8997 136.613 90.1029 136.901 90.251C137.189 90.3991 137.521 90.4731 137.897 90.4731C138.27 90.4731 138.598 90.3991 138.881 90.251C139.169 90.1029 139.41 89.8997 139.605 89.6416C139.8 89.3792 139.946 89.0809 140.043 88.7466C140.145 88.408 140.195 88.0505 140.195 87.6738V87.4644C140.195 87.092 140.145 86.7386 140.043 86.4043C139.946 86.07 139.798 85.7716 139.599 85.5093C139.404 85.2469 139.163 85.0396 138.875 84.8872C138.587 84.7349 138.257 84.6587 137.885 84.6587C137.512 84.6587 137.182 84.7349 136.895 84.8872C136.611 85.0396 136.37 85.2469 136.171 85.5093C135.976 85.7716 135.828 86.07 135.727 86.4043C135.629 86.7386 135.581 87.092 135.581 87.4644ZM143.287 85.5981V91H142.531V84.1318H143.255L143.287 85.5981ZM143.115 87.1406L142.779 86.9502C142.804 86.5439 142.887 86.1631 143.026 85.8076C143.166 85.4521 143.354 85.139 143.591 84.8682C143.833 84.5973 144.114 84.3857 144.436 84.2334C144.761 84.0811 145.121 84.0049 145.515 84.0049C145.857 84.0049 146.164 84.0514 146.435 84.1445C146.706 84.2376 146.937 84.3857 147.127 84.5889C147.317 84.792 147.461 85.0522 147.559 85.3696C147.66 85.687 147.711 86.0742 147.711 86.5312V91H146.949V86.5249C146.949 86.0509 146.884 85.6807 146.752 85.4141C146.621 85.1432 146.435 84.9507 146.194 84.8364C145.953 84.7222 145.667 84.665 145.337 84.665C144.973 84.665 144.653 84.7454 144.378 84.9062C144.108 85.0628 143.879 85.2681 143.693 85.522C143.511 85.7716 143.371 86.0404 143.274 86.3281C143.177 86.6117 143.124 86.8825 143.115 87.1406ZM150.891 91H150.136V83.4082C150.136 82.9131 150.227 82.4963 150.409 82.1577C150.595 81.8149 150.857 81.5568 151.196 81.3833C151.539 81.2056 151.945 81.1167 152.415 81.1167C152.698 81.1167 152.986 81.1484 153.278 81.2119C153.57 81.2754 153.864 81.3685 154.16 81.4912L154.04 82.1514C153.815 82.054 153.58 81.9736 153.335 81.9102C153.09 81.8467 152.798 81.8149 152.459 81.8149C151.943 81.8149 151.551 81.9504 151.285 82.2212C151.022 82.492 150.891 82.8877 150.891 83.4082V91ZM152.497 84.1318V84.7539H148.993V84.1318H152.497ZM154.573 84.1318V91H153.817V84.1318H154.573ZM157.429 85.2681V91H156.674V84.1318H157.41L157.429 85.2681ZM159.86 84.0811L159.841 84.7793C159.757 84.7666 159.674 84.756 159.594 84.7476C159.513 84.7391 159.427 84.7349 159.333 84.7349C159.003 84.7349 158.714 84.7962 158.464 84.9189C158.218 85.0374 158.011 85.2046 157.842 85.4204C157.673 85.632 157.543 85.8817 157.455 86.1694C157.366 86.453 157.315 86.7576 157.302 87.0835L157.023 87.1914C157.023 86.7428 157.069 86.326 157.163 85.9409C157.256 85.5558 157.397 85.2194 157.588 84.9316C157.783 84.6396 158.026 84.4132 158.318 84.2524C158.614 84.0874 158.961 84.0049 159.359 84.0049C159.456 84.0049 159.551 84.0133 159.645 84.0303C159.742 84.043 159.814 84.0599 159.86 84.0811ZM161.771 85.5537V91H161.009V84.1318H161.739L161.771 85.5537ZM161.631 87.1406L161.263 86.9502C161.289 86.5439 161.365 86.1631 161.492 85.8076C161.623 85.4521 161.805 85.139 162.038 84.8682C162.27 84.5973 162.55 84.3857 162.875 84.2334C163.201 84.0811 163.572 84.0049 163.986 84.0049C164.321 84.0049 164.623 84.0514 164.894 84.1445C165.169 84.2334 165.402 84.3752 165.592 84.5698C165.787 84.7603 165.937 85.0099 166.043 85.3188C166.149 85.6278 166.202 85.998 166.202 86.4297V91H165.446V86.4551C165.446 85.998 165.374 85.6405 165.23 85.3823C165.091 85.1242 164.894 84.9401 164.64 84.8301C164.39 84.7201 164.101 84.665 163.771 84.665C163.381 84.665 163.051 84.7454 162.78 84.9062C162.514 85.0628 162.296 85.2681 162.126 85.522C161.961 85.7716 161.839 86.0404 161.758 86.3281C161.678 86.6117 161.636 86.8825 161.631 87.1406ZM166.195 86.5439L165.688 86.5566C165.709 86.2223 165.785 85.9028 165.916 85.5981C166.051 85.2935 166.236 85.0226 166.468 84.7856C166.701 84.5444 166.978 84.354 167.3 84.2144C167.626 84.0747 167.992 84.0049 168.398 84.0049C168.753 84.0049 169.071 84.0535 169.35 84.1509C169.629 84.244 169.864 84.3942 170.055 84.6016C170.249 84.8047 170.397 85.0649 170.499 85.3823C170.601 85.6997 170.651 86.0806 170.651 86.5249V91H169.89V86.5186C169.89 86.0319 169.818 85.6553 169.674 85.3887C169.534 85.1178 169.34 84.9295 169.09 84.8237C168.84 84.7179 168.548 84.665 168.214 84.665C167.884 84.6693 167.594 84.7306 167.344 84.8491C167.095 84.9634 166.885 85.1157 166.716 85.3062C166.551 85.4924 166.424 85.6934 166.335 85.9092C166.25 86.125 166.204 86.3366 166.195 86.5439ZM176.758 89.7686V86.2266C176.758 85.9007 176.69 85.6193 176.555 85.3823C176.419 85.1453 176.22 84.9634 175.958 84.8364C175.696 84.7095 175.372 84.646 174.987 84.646C174.631 84.646 174.314 84.7095 174.035 84.8364C173.76 84.9591 173.542 85.1263 173.381 85.3379C173.224 85.5452 173.146 85.7759 173.146 86.0298L172.384 86.0234C172.384 85.7653 172.448 85.5156 172.575 85.2744C172.702 85.0332 172.882 84.8174 173.114 84.627C173.347 84.4365 173.624 84.2863 173.946 84.1763C174.272 84.062 174.629 84.0049 175.019 84.0049C175.509 84.0049 175.941 84.0874 176.313 84.2524C176.69 84.4175 176.984 84.665 177.196 84.9951C177.407 85.3252 177.513 85.7399 177.513 86.2393V89.5591C177.513 89.7961 177.53 90.0415 177.564 90.2954C177.602 90.5493 177.655 90.7588 177.723 90.9238V91H176.917C176.866 90.8477 176.826 90.6572 176.796 90.4287C176.771 90.196 176.758 89.9759 176.758 89.7686ZM176.936 87.001L176.948 87.585H175.457C175.067 87.585 174.718 87.6209 174.409 87.6929C174.104 87.7606 173.846 87.8621 173.635 87.9976C173.423 88.1287 173.26 88.2874 173.146 88.4736C173.036 88.6598 172.981 88.8714 172.981 89.1084C172.981 89.3538 173.042 89.5781 173.165 89.7812C173.292 89.9844 173.47 90.1473 173.698 90.27C173.931 90.3885 174.206 90.4478 174.523 90.4478C174.947 90.4478 175.319 90.3695 175.641 90.2129C175.966 90.0563 176.235 89.8511 176.447 89.5972C176.658 89.3433 176.8 89.0661 176.872 88.7656L177.202 89.2036C177.147 89.4152 177.046 89.6331 176.897 89.8574C176.754 90.0775 176.565 90.2848 176.333 90.4795C176.1 90.6699 175.825 90.8265 175.507 90.9492C175.194 91.0677 174.839 91.127 174.441 91.127C173.992 91.127 173.601 91.0423 173.267 90.873C172.937 90.7038 172.678 90.4731 172.492 90.1812C172.31 89.8849 172.219 89.5506 172.219 89.1782C172.219 88.8397 172.291 88.5371 172.435 88.2705C172.579 87.9997 172.786 87.7712 173.057 87.585C173.332 87.3945 173.662 87.2507 174.047 87.1533C174.437 87.0518 174.873 87.001 175.355 87.001H176.936ZM184.013 89.667V81.25H184.775V91H184.064L184.013 89.667ZM179.246 87.6357V87.5024C179.246 86.9692 179.307 86.4889 179.43 86.0615C179.553 85.6299 179.729 85.2617 179.957 84.957C180.19 84.6481 180.469 84.4132 180.795 84.2524C181.121 84.0874 181.489 84.0049 181.899 84.0049C182.301 84.0049 182.657 84.0705 182.966 84.2017C183.275 84.3328 183.539 84.5212 183.759 84.7666C183.984 85.012 184.163 85.304 184.299 85.6426C184.438 85.9811 184.54 86.3577 184.604 86.7725V88.4673C184.553 88.8566 184.46 89.2142 184.324 89.54C184.189 89.8617 184.009 90.1431 183.785 90.3843C183.56 90.6213 183.29 90.8053 182.972 90.9365C182.659 91.0635 182.297 91.127 181.887 91.127C181.48 91.127 181.114 91.0423 180.789 90.873C180.463 90.7038 180.186 90.4647 179.957 90.1558C179.729 89.8426 179.553 89.4723 179.43 89.0449C179.307 88.6175 179.246 88.1478 179.246 87.6357ZM180.008 87.5024V87.6357C180.008 88.0378 180.048 88.4102 180.128 88.7529C180.209 89.0957 180.332 89.394 180.497 89.6479C180.662 89.9019 180.871 90.1007 181.125 90.2446C181.379 90.3885 181.679 90.4604 182.026 90.4604C182.462 90.4604 182.828 90.3779 183.125 90.2129C183.421 90.0436 183.658 89.8215 183.835 89.5464C184.013 89.2671 184.142 88.9624 184.223 88.6323V86.6582C184.172 86.4339 184.098 86.2054 184 85.9727C183.903 85.7399 183.77 85.5262 183.601 85.3315C183.436 85.1326 183.224 84.974 182.966 84.8555C182.712 84.7327 182.403 84.6714 182.039 84.6714C181.688 84.6714 181.385 84.7433 181.131 84.8872C180.877 85.0311 180.666 85.2321 180.497 85.4902C180.332 85.7441 180.209 86.0425 180.128 86.3853C180.048 86.728 180.008 87.1004 180.008 87.5024ZM186.355 87.6738V87.4644C186.355 86.965 186.427 86.5037 186.571 86.0806C186.715 85.6574 186.92 85.2913 187.187 84.9824C187.458 84.6735 187.782 84.4344 188.158 84.2651C188.535 84.0916 188.954 84.0049 189.415 84.0049C189.881 84.0049 190.302 84.0916 190.678 84.2651C191.055 84.4344 191.379 84.6735 191.649 84.9824C191.92 85.2913 192.128 85.6574 192.271 86.0806C192.415 86.5037 192.487 86.965 192.487 87.4644V87.6738C192.487 88.1732 192.415 88.6344 192.271 89.0576C192.128 89.4766 191.92 89.8405 191.649 90.1494C191.383 90.4583 191.061 90.6995 190.685 90.873C190.308 91.0423 189.889 91.127 189.428 91.127C188.962 91.127 188.541 91.0423 188.165 90.873C187.788 90.6995 187.464 90.4583 187.193 90.1494C186.923 89.8405 186.715 89.4766 186.571 89.0576C186.427 88.6344 186.355 88.1732 186.355 87.6738ZM187.111 87.4644V87.6738C187.111 88.0505 187.162 88.408 187.263 88.7466C187.365 89.0809 187.513 89.3792 187.708 89.6416C187.902 89.8997 188.143 90.1029 188.431 90.251C188.719 90.3991 189.051 90.4731 189.428 90.4731C189.8 90.4731 190.128 90.3991 190.412 90.251C190.699 90.1029 190.941 89.8997 191.135 89.6416C191.33 89.3792 191.476 89.0809 191.573 88.7466C191.675 88.408 191.726 88.0505 191.726 87.6738V87.4644C191.726 87.092 191.675 86.7386 191.573 86.4043C191.476 86.07 191.328 85.7716 191.129 85.5093C190.934 85.2469 190.693 85.0396 190.405 84.8872C190.118 84.7349 189.787 84.6587 189.415 84.6587C189.043 84.6587 188.713 84.7349 188.425 84.8872C188.141 85.0396 187.9 85.2469 187.701 85.5093C187.507 85.7716 187.358 86.07 187.257 86.4043C187.16 86.7386 187.111 87.092 187.111 87.4644ZM198.08 81.25V91H197.324V81.25H198.08ZM204.332 89.7686V86.2266C204.332 85.9007 204.264 85.6193 204.129 85.3823C203.993 85.1453 203.795 84.9634 203.532 84.8364C203.27 84.7095 202.946 84.646 202.561 84.646C202.206 84.646 201.888 84.7095 201.609 84.8364C201.334 84.9591 201.116 85.1263 200.955 85.3379C200.799 85.5452 200.72 85.7759 200.72 86.0298L199.958 86.0234C199.958 85.7653 200.022 85.5156 200.149 85.2744C200.276 85.0332 200.456 84.8174 200.688 84.627C200.921 84.4365 201.198 84.2863 201.52 84.1763C201.846 84.062 202.203 84.0049 202.593 84.0049C203.084 84.0049 203.515 84.0874 203.888 84.2524C204.264 84.4175 204.558 84.665 204.77 84.9951C204.982 85.3252 205.087 85.7399 205.087 86.2393V89.5591C205.087 89.7961 205.104 90.0415 205.138 90.2954C205.176 90.5493 205.229 90.7588 205.297 90.9238V91H204.491C204.44 90.8477 204.4 90.6572 204.37 90.4287C204.345 90.196 204.332 89.9759 204.332 89.7686ZM204.51 87.001L204.522 87.585H203.031C202.641 87.585 202.292 87.6209 201.983 87.6929C201.679 87.7606 201.421 87.8621 201.209 87.9976C200.997 88.1287 200.834 88.2874 200.72 88.4736C200.61 88.6598 200.555 88.8714 200.555 89.1084C200.555 89.3538 200.617 89.5781 200.739 89.7812C200.866 89.9844 201.044 90.1473 201.272 90.27C201.505 90.3885 201.78 90.4478 202.098 90.4478C202.521 90.4478 202.893 90.3695 203.215 90.2129C203.541 90.0563 203.809 89.8511 204.021 89.5972C204.233 89.3433 204.374 89.0661 204.446 88.7656L204.776 89.2036C204.721 89.4152 204.62 89.6331 204.472 89.8574C204.328 90.0775 204.139 90.2848 203.907 90.4795C203.674 90.6699 203.399 90.8265 203.082 90.9492C202.768 91.0677 202.413 91.127 202.015 91.127C201.567 91.127 201.175 91.0423 200.841 90.873C200.511 90.7038 200.253 90.4731 200.066 90.1812C199.884 89.8849 199.793 89.5506 199.793 89.1782C199.793 88.8397 199.865 88.5371 200.009 88.2705C200.153 87.9997 200.361 87.7712 200.631 87.585C200.906 87.3945 201.236 87.2507 201.622 87.1533C202.011 87.0518 202.447 87.001 202.929 87.001H204.51ZM212.832 90.4731C213.153 90.4731 213.454 90.4139 213.733 90.2954C214.016 90.1727 214.249 89.9928 214.431 89.7559C214.617 89.5146 214.723 89.2205 214.749 88.8735H215.472C215.451 89.3094 215.318 89.6987 215.072 90.0415C214.831 90.38 214.514 90.6466 214.12 90.8413C213.731 91.0317 213.301 91.127 212.832 91.127C212.353 91.127 211.93 91.0402 211.562 90.8667C211.198 90.6932 210.893 90.452 210.648 90.1431C210.403 89.8299 210.216 89.466 210.089 89.0513C209.967 88.6323 209.905 88.1816 209.905 87.6992V87.4326C209.905 86.9502 209.967 86.5016 210.089 86.0869C210.216 85.668 210.403 85.304 210.648 84.9951C210.893 84.682 211.198 84.4386 211.562 84.2651C211.926 84.0916 212.347 84.0049 212.825 84.0049C213.316 84.0049 213.756 84.1043 214.146 84.3032C214.539 84.5021 214.852 84.7835 215.085 85.1475C215.322 85.5114 215.451 85.943 215.472 86.4424H214.749C214.727 86.0742 214.63 85.7568 214.457 85.4902C214.283 85.2236 214.055 85.0184 213.771 84.8745C213.487 84.7306 213.172 84.6587 212.825 84.6587C212.436 84.6587 212.104 84.7349 211.829 84.8872C211.554 85.0353 211.329 85.2406 211.156 85.5029C210.986 85.7611 210.862 86.0573 210.781 86.3916C210.701 86.7217 210.661 87.0687 210.661 87.4326V87.6992C210.661 88.0674 210.699 88.4186 210.775 88.7529C210.855 89.083 210.98 89.3771 211.149 89.6353C211.323 89.8934 211.547 90.0986 211.822 90.251C212.102 90.3991 212.438 90.4731 212.832 90.4731ZM216.583 87.6738V87.4644C216.583 86.965 216.655 86.5037 216.799 86.0806C216.943 85.6574 217.148 85.2913 217.415 84.9824C217.685 84.6735 218.009 84.4344 218.386 84.2651C218.762 84.0916 219.181 84.0049 219.643 84.0049C220.108 84.0049 220.529 84.0916 220.906 84.2651C221.282 84.4344 221.606 84.6735 221.877 84.9824C222.148 85.2913 222.355 85.6574 222.499 86.0806C222.643 86.5037 222.715 86.965 222.715 87.4644V87.6738C222.715 88.1732 222.643 88.6344 222.499 89.0576C222.355 89.4766 222.148 89.8405 221.877 90.1494C221.61 90.4583 221.289 90.6995 220.912 90.873C220.535 91.0423 220.117 91.127 219.655 91.127C219.19 91.127 218.769 91.0423 218.392 90.873C218.015 90.6995 217.692 90.4583 217.421 90.1494C217.15 89.8405 216.943 89.4766 216.799 89.0576C216.655 88.6344 216.583 88.1732 216.583 87.6738ZM217.338 87.4644V87.6738C217.338 88.0505 217.389 88.408 217.491 88.7466C217.592 89.0809 217.74 89.3792 217.935 89.6416C218.13 89.8997 218.371 90.1029 218.659 90.251C218.946 90.3991 219.279 90.4731 219.655 90.4731C220.028 90.4731 220.356 90.3991 220.639 90.251C220.927 90.1029 221.168 89.8997 221.363 89.6416C221.557 89.3792 221.703 89.0809 221.801 88.7466C221.902 88.408 221.953 88.0505 221.953 87.6738V87.4644C221.953 87.092 221.902 86.7386 221.801 86.4043C221.703 86.07 221.555 85.7716 221.356 85.5093C221.162 85.2469 220.921 85.0396 220.633 84.8872C220.345 84.7349 220.015 84.6587 219.643 84.6587C219.27 84.6587 218.94 84.7349 218.652 84.8872C218.369 85.0396 218.128 85.2469 217.929 85.5093C217.734 85.7716 217.586 86.07 217.484 86.4043C217.387 86.7386 217.338 87.092 217.338 87.4644ZM225.006 85.5537V91H224.245V84.1318H224.975L225.006 85.5537ZM224.867 87.1406L224.499 86.9502C224.524 86.5439 224.6 86.1631 224.727 85.8076C224.858 85.4521 225.04 85.139 225.273 84.8682C225.506 84.5973 225.785 84.3857 226.111 84.2334C226.437 84.0811 226.807 84.0049 227.222 84.0049C227.556 84.0049 227.859 84.0514 228.129 84.1445C228.404 84.2334 228.637 84.3752 228.828 84.5698C229.022 84.7603 229.173 85.0099 229.278 85.3188C229.384 85.6278 229.437 85.998 229.437 86.4297V91H228.682V86.4551C228.682 85.998 228.61 85.6405 228.466 85.3823C228.326 85.1242 228.129 84.9401 227.875 84.8301C227.626 84.7201 227.336 84.665 227.006 84.665C226.617 84.665 226.286 84.7454 226.016 84.9062C225.749 85.0628 225.531 85.2681 225.362 85.522C225.197 85.7716 225.074 86.0404 224.994 86.3281C224.913 86.6117 224.871 86.8825 224.867 87.1406ZM229.431 86.5439L228.923 86.5566C228.944 86.2223 229.02 85.9028 229.151 85.5981C229.287 85.2935 229.471 85.0226 229.704 84.7856C229.936 84.5444 230.214 84.354 230.535 84.2144C230.861 84.0747 231.227 84.0049 231.633 84.0049C231.989 84.0049 232.306 84.0535 232.585 84.1509C232.865 84.244 233.1 84.3942 233.29 84.6016C233.485 84.8047 233.633 85.0649 233.734 85.3823C233.836 85.6997 233.887 86.0806 233.887 86.5249V91H233.125V86.5186C233.125 86.0319 233.053 85.6553 232.909 85.3887C232.77 85.1178 232.575 84.9295 232.325 84.8237C232.076 84.7179 231.784 84.665 231.449 84.665C231.119 84.6693 230.829 84.7306 230.58 84.8491C230.33 84.9634 230.12 85.1157 229.951 85.3062C229.786 85.4924 229.659 85.6934 229.57 85.9092C229.486 86.125 229.439 86.3366 229.431 86.5439ZM236.565 85.4521V93.6406H235.804V84.1318H236.515L236.565 85.4521ZM241.339 87.5024V87.6357C241.339 88.1478 241.28 88.6175 241.161 89.0449C241.043 89.4723 240.871 89.8426 240.647 90.1558C240.427 90.4647 240.154 90.7038 239.828 90.873C239.502 91.0423 239.132 91.127 238.717 91.127C238.307 91.127 237.941 91.0635 237.619 90.9365C237.298 90.8096 237.02 90.6297 236.788 90.397C236.559 90.16 236.375 89.8849 236.235 89.5718C236.1 89.2544 236.005 88.9074 235.95 88.5308V86.7725C236.013 86.3577 236.117 85.9811 236.261 85.6426C236.405 85.304 236.589 85.012 236.813 84.7666C237.042 84.5212 237.312 84.3328 237.625 84.2017C237.939 84.0705 238.296 84.0049 238.698 84.0049C239.117 84.0049 239.49 84.0874 239.815 84.2524C240.146 84.4132 240.423 84.6481 240.647 84.957C240.875 85.2617 241.047 85.6299 241.161 86.0615C241.28 86.4889 241.339 86.9692 241.339 87.5024ZM240.577 87.6357V87.5024C240.577 87.1004 240.535 86.728 240.45 86.3853C240.37 86.0425 240.245 85.7441 240.076 85.4902C239.911 85.2321 239.699 85.0311 239.441 84.8872C239.187 84.7433 238.884 84.6714 238.533 84.6714C238.169 84.6714 237.858 84.7327 237.6 84.8555C237.346 84.974 237.135 85.1326 236.965 85.3315C236.796 85.5262 236.663 85.7399 236.565 85.9727C236.468 86.2054 236.396 86.4339 236.35 86.6582V88.6831C236.43 89.0047 236.559 89.3031 236.737 89.5781C236.915 89.849 237.152 90.0669 237.448 90.2319C237.748 90.3927 238.114 90.4731 238.546 90.4731C238.893 90.4731 239.193 90.4012 239.447 90.2573C239.701 90.1134 239.911 89.9124 240.076 89.6543C240.245 89.3962 240.37 89.0957 240.45 88.7529C240.535 88.4102 240.577 88.0378 240.577 87.6357ZM243.783 85.2681V91H243.027V84.1318H243.764L243.783 85.2681ZM246.214 84.0811L246.195 84.7793C246.11 84.7666 246.028 84.756 245.947 84.7476C245.867 84.7391 245.78 84.7349 245.687 84.7349C245.357 84.7349 245.067 84.7962 244.817 84.9189C244.572 85.0374 244.365 85.2046 244.195 85.4204C244.026 85.632 243.897 85.8817 243.808 86.1694C243.719 86.453 243.668 86.7576 243.656 87.0835L243.376 87.1914C243.376 86.7428 243.423 86.326 243.516 85.9409C243.609 85.5558 243.751 85.2194 243.941 84.9316C244.136 84.6396 244.379 84.4132 244.671 84.2524C244.968 84.0874 245.315 84.0049 245.712 84.0049C245.81 84.0049 245.905 84.0133 245.998 84.0303C246.095 84.043 246.167 84.0599 246.214 84.0811ZM251.33 89.7686V86.2266C251.33 85.9007 251.262 85.6193 251.127 85.3823C250.992 85.1453 250.793 84.9634 250.53 84.8364C250.268 84.7095 249.944 84.646 249.559 84.646C249.204 84.646 248.886 84.7095 248.607 84.8364C248.332 84.9591 248.114 85.1263 247.953 85.3379C247.797 85.5452 247.718 85.7759 247.718 86.0298L246.957 86.0234C246.957 85.7653 247.02 85.5156 247.147 85.2744C247.274 85.0332 247.454 84.8174 247.687 84.627C247.919 84.4365 248.196 84.2863 248.518 84.1763C248.844 84.062 249.201 84.0049 249.591 84.0049C250.082 84.0049 250.513 84.0874 250.886 84.2524C251.262 84.4175 251.556 84.665 251.768 84.9951C251.98 85.3252 252.085 85.7399 252.085 86.2393V89.5591C252.085 89.7961 252.102 90.0415 252.136 90.2954C252.174 90.5493 252.227 90.7588 252.295 90.9238V91H251.489C251.438 90.8477 251.398 90.6572 251.368 90.4287C251.343 90.196 251.33 89.9759 251.33 89.7686ZM251.508 87.001L251.521 87.585H250.029C249.639 87.585 249.29 87.6209 248.981 87.6929C248.677 87.7606 248.419 87.8621 248.207 87.9976C247.995 88.1287 247.833 88.2874 247.718 88.4736C247.608 88.6598 247.553 88.8714 247.553 89.1084C247.553 89.3538 247.615 89.5781 247.737 89.7812C247.864 89.9844 248.042 90.1473 248.271 90.27C248.503 90.3885 248.778 90.4478 249.096 90.4478C249.519 90.4478 249.891 90.3695 250.213 90.2129C250.539 90.0563 250.807 89.8511 251.019 89.5972C251.231 89.3433 251.372 89.0661 251.444 88.7656L251.774 89.2036C251.719 89.4152 251.618 89.6331 251.47 89.8574C251.326 90.0775 251.138 90.2848 250.905 90.4795C250.672 90.6699 250.397 90.8265 250.08 90.9492C249.766 91.0677 249.411 91.127 249.013 91.127C248.565 91.127 248.173 91.0423 247.839 90.873C247.509 90.7038 247.251 90.4731 247.064 90.1812C246.882 89.8849 246.792 89.5506 246.792 89.1782C246.792 88.8397 246.863 88.5371 247.007 88.2705C247.151 87.9997 247.359 87.7712 247.629 87.585C247.904 87.3945 248.235 87.2507 248.62 87.1533C249.009 87.0518 249.445 87.001 249.927 87.001H251.508ZM254.853 89.8003V90.689C254.853 91.0783 254.773 91.4528 254.612 91.8125C254.451 92.1764 254.233 92.4832 253.958 92.7329L253.514 92.4028C253.645 92.2251 253.755 92.0474 253.844 91.8696C253.933 91.6961 253.998 91.5142 254.041 91.3237C254.087 91.1333 254.11 90.9281 254.11 90.708V89.8003H254.853ZM262.394 84.1318V84.7539H258.954V84.1318H262.394ZM260.217 82.3672H260.972V89.3306C260.972 89.6479 261.014 89.887 261.099 90.0479C261.184 90.2087 261.294 90.3166 261.429 90.3716C261.565 90.4266 261.711 90.4541 261.867 90.4541C261.981 90.4541 262.091 90.4478 262.197 90.4351C262.303 90.4181 262.398 90.4012 262.483 90.3843L262.515 91.0254C262.422 91.055 262.301 91.0783 262.153 91.0952C262.005 91.1164 261.857 91.127 261.708 91.127C261.417 91.127 261.158 91.0741 260.934 90.9683C260.71 90.8582 260.534 90.672 260.407 90.4097C260.28 90.1431 260.217 89.7812 260.217 89.3242V82.3672ZM268.386 89.4131V84.1318H269.148V91H268.418L268.386 89.4131ZM268.526 88.1436L268.919 88.1309C268.919 88.5625 268.869 88.9603 268.767 89.3242C268.666 89.6882 268.507 90.0055 268.291 90.2764C268.075 90.5472 267.796 90.7567 267.453 90.9048C267.11 91.0529 266.698 91.127 266.215 91.127C265.881 91.127 265.574 91.0804 265.295 90.9873C265.02 90.89 264.783 90.7376 264.584 90.5303C264.385 90.3229 264.231 90.0542 264.121 89.7241C264.015 89.394 263.962 88.9941 263.962 88.5244V84.1318H264.717V88.5371C264.717 88.9053 264.757 89.2121 264.838 89.4575C264.923 89.703 265.037 89.8997 265.181 90.0479C265.329 90.196 265.498 90.3018 265.688 90.3652C265.879 90.4287 266.084 90.4604 266.304 90.4604C266.863 90.4604 267.303 90.3525 267.625 90.1367C267.95 89.9209 268.181 89.6374 268.316 89.2861C268.456 88.9307 268.526 88.5498 268.526 88.1436ZM276.841 90.4731C277.163 90.4731 277.463 90.4139 277.743 90.2954C278.026 90.1727 278.259 89.9928 278.441 89.7559C278.627 89.5146 278.733 89.2205 278.758 88.8735H279.482C279.461 89.3094 279.327 89.6987 279.082 90.0415C278.841 90.38 278.523 90.6466 278.13 90.8413C277.741 91.0317 277.311 91.127 276.841 91.127C276.363 91.127 275.94 91.0402 275.572 90.8667C275.208 90.6932 274.903 90.452 274.658 90.1431C274.412 89.8299 274.226 89.466 274.099 89.0513C273.976 88.6323 273.915 88.1816 273.915 87.6992V87.4326C273.915 86.9502 273.976 86.5016 274.099 86.0869C274.226 85.668 274.412 85.304 274.658 84.9951C274.903 84.682 275.208 84.4386 275.572 84.2651C275.936 84.0916 276.357 84.0049 276.835 84.0049C277.326 84.0049 277.766 84.1043 278.155 84.3032C278.549 84.5021 278.862 84.7835 279.095 85.1475C279.332 85.5114 279.461 85.943 279.482 86.4424H278.758C278.737 86.0742 278.64 85.7568 278.466 85.4902C278.293 85.2236 278.064 85.0184 277.781 84.8745C277.497 84.7306 277.182 84.6587 276.835 84.6587C276.446 84.6587 276.113 84.7349 275.838 84.8872C275.563 85.0353 275.339 85.2406 275.166 85.5029C274.996 85.7611 274.871 86.0573 274.791 86.3916C274.711 86.7217 274.67 87.0687 274.67 87.4326V87.6992C274.67 88.0674 274.708 88.4186 274.785 88.7529C274.865 89.083 274.99 89.3771 275.159 89.6353C275.333 89.8934 275.557 90.0986 275.832 90.251C276.111 90.3991 276.448 90.4731 276.841 90.4731ZM281.856 81.25V91H281.101V81.25H281.856ZM284.776 84.1318V91H284.021V84.1318H284.776ZM283.887 82.145C283.887 82.0011 283.932 81.8805 284.021 81.7832C284.114 81.6816 284.241 81.6309 284.401 81.6309C284.562 81.6309 284.689 81.6816 284.782 81.7832C284.88 81.8805 284.928 82.0011 284.928 82.145C284.928 82.2847 284.88 82.4053 284.782 82.5068C284.689 82.6042 284.562 82.6528 284.401 82.6528C284.241 82.6528 284.114 82.6042 284.021 82.5068C283.932 82.4053 283.887 82.2847 283.887 82.145ZM289.505 91.127C289.056 91.127 288.644 91.0444 288.267 90.8794C287.895 90.7144 287.569 90.4816 287.29 90.1812C287.014 89.8807 286.801 89.5252 286.648 89.1147C286.5 88.7 286.426 88.2472 286.426 87.7563V87.4834C286.426 86.9544 286.505 86.4762 286.661 86.0488C286.818 85.6214 287.034 85.2554 287.309 84.9507C287.584 84.646 287.897 84.4132 288.248 84.2524C288.604 84.0874 288.976 84.0049 289.365 84.0049C289.801 84.0049 290.188 84.0832 290.527 84.2397C290.865 84.3921 291.149 84.61 291.377 84.8936C291.61 85.1729 291.786 85.505 291.904 85.8901C292.023 86.271 292.082 86.6921 292.082 87.1533V87.6167H286.883V86.9692H291.327V86.8804C291.318 86.4953 291.24 86.1356 291.092 85.8013C290.948 85.4627 290.732 85.1877 290.444 84.9761C290.157 84.7645 289.797 84.6587 289.365 84.6587C289.044 84.6587 288.747 84.7264 288.477 84.8618C288.21 84.9972 287.979 85.1919 287.785 85.4458C287.594 85.6955 287.446 85.9938 287.34 86.3408C287.239 86.6836 287.188 87.0645 287.188 87.4834V87.7563C287.188 88.1372 287.243 88.4927 287.353 88.8228C287.467 89.1486 287.628 89.4364 287.835 89.686C288.047 89.9357 288.297 90.1304 288.584 90.27C288.872 90.4097 289.19 90.4795 289.537 90.4795C289.943 90.4795 290.303 90.4054 290.616 90.2573C290.929 90.105 291.21 89.8659 291.46 89.54L291.936 89.9082C291.788 90.1283 291.602 90.3314 291.377 90.5176C291.157 90.7038 290.893 90.8519 290.584 90.9619C290.275 91.0719 289.915 91.127 289.505 91.127ZM294.335 85.5981V91H293.58V84.1318H294.304L294.335 85.5981ZM294.164 87.1406L293.828 86.9502C293.853 86.5439 293.936 86.1631 294.075 85.8076C294.215 85.4521 294.403 85.139 294.64 84.8682C294.881 84.5973 295.163 84.3857 295.484 84.2334C295.81 84.0811 296.17 84.0049 296.563 84.0049C296.906 84.0049 297.213 84.0514 297.484 84.1445C297.755 84.2376 297.985 84.3857 298.176 84.5889C298.366 84.792 298.51 85.0522 298.607 85.3696C298.709 85.687 298.76 86.0742 298.76 86.5312V91H297.998V86.5249C297.998 86.0509 297.932 85.6807 297.801 85.4141C297.67 85.1432 297.484 84.9507 297.243 84.8364C297.001 84.7222 296.716 84.665 296.386 84.665C296.022 84.665 295.702 84.7454 295.427 84.9062C295.156 85.0628 294.928 85.2681 294.742 85.522C294.56 85.7716 294.42 86.0404 294.323 86.3281C294.225 86.6117 294.173 86.8825 294.164 87.1406ZM303.324 84.1318V84.7539H299.883V84.1318H303.324ZM301.146 82.3672H301.902V89.3306C301.902 89.6479 301.944 89.887 302.029 90.0479C302.113 90.2087 302.223 90.3166 302.359 90.3716C302.494 90.4266 302.64 90.4541 302.797 90.4541C302.911 90.4541 303.021 90.4478 303.127 90.4351C303.233 90.4181 303.328 90.4012 303.413 90.3843L303.444 91.0254C303.351 91.055 303.231 91.0783 303.083 91.0952C302.934 91.1164 302.786 91.127 302.638 91.127C302.346 91.127 302.088 91.0741 301.864 90.9683C301.639 90.8582 301.464 90.672 301.337 90.4097C301.21 90.1431 301.146 89.7812 301.146 89.3242V82.3672ZM307.57 91.127C307.122 91.127 306.709 91.0444 306.333 90.8794C305.96 90.7144 305.634 90.4816 305.355 90.1812C305.08 89.8807 304.866 89.5252 304.714 89.1147C304.566 88.7 304.492 88.2472 304.492 87.7563V87.4834C304.492 86.9544 304.57 86.4762 304.727 86.0488C304.883 85.6214 305.099 85.2554 305.374 84.9507C305.649 84.646 305.962 84.4132 306.313 84.2524C306.669 84.0874 307.041 84.0049 307.431 84.0049C307.867 84.0049 308.254 84.0832 308.592 84.2397C308.931 84.3921 309.214 84.61 309.443 84.8936C309.676 85.1729 309.851 85.505 309.97 85.8901C310.088 86.271 310.147 86.6921 310.147 87.1533V87.6167H304.949V86.9692H309.392V86.8804C309.384 86.4953 309.305 86.1356 309.157 85.8013C309.013 85.4627 308.798 85.1877 308.51 84.9761C308.222 84.7645 307.862 84.6587 307.431 84.6587C307.109 84.6587 306.813 84.7264 306.542 84.8618C306.275 84.9972 306.045 85.1919 305.85 85.4458C305.66 85.6955 305.512 85.9938 305.406 86.3408C305.304 86.6836 305.253 87.0645 305.253 87.4834V87.7563C305.253 88.1372 305.308 88.4927 305.418 88.8228C305.533 89.1486 305.694 89.4364 305.901 89.686C306.112 89.9357 306.362 90.1304 306.65 90.27C306.938 90.4097 307.255 90.4795 307.602 90.4795C308.008 90.4795 308.368 90.4054 308.681 90.2573C308.994 90.105 309.276 89.8659 309.525 89.54L310.001 89.9082C309.853 90.1283 309.667 90.3314 309.443 90.5176C309.223 90.7038 308.958 90.8519 308.649 90.9619C308.34 91.0719 307.981 91.127 307.57 91.127ZM318.996 89.7686V86.2266C318.996 85.9007 318.928 85.6193 318.793 85.3823C318.658 85.1453 318.459 84.9634 318.196 84.8364C317.934 84.7095 317.61 84.646 317.225 84.646C316.87 84.646 316.552 84.7095 316.273 84.8364C315.998 84.9591 315.78 85.1263 315.619 85.3379C315.463 85.5452 315.384 85.7759 315.384 86.0298L314.623 86.0234C314.623 85.7653 314.686 85.5156 314.813 85.2744C314.94 85.0332 315.12 84.8174 315.353 84.627C315.585 84.4365 315.862 84.2863 316.184 84.1763C316.51 84.062 316.868 84.0049 317.257 84.0049C317.748 84.0049 318.179 84.0874 318.552 84.2524C318.928 84.4175 319.222 84.665 319.434 84.9951C319.646 85.3252 319.751 85.7399 319.751 86.2393V89.5591C319.751 89.7961 319.768 90.0415 319.802 90.2954C319.84 90.5493 319.893 90.7588 319.961 90.9238V91H319.155C319.104 90.8477 319.064 90.6572 319.034 90.4287C319.009 90.196 318.996 89.9759 318.996 89.7686ZM319.174 87.001L319.187 87.585H317.695C317.306 87.585 316.956 87.6209 316.647 87.6929C316.343 87.7606 316.085 87.8621 315.873 87.9976C315.661 88.1287 315.499 88.2874 315.384 88.4736C315.274 88.6598 315.219 88.8714 315.219 89.1084C315.219 89.3538 315.281 89.5781 315.403 89.7812C315.53 89.9844 315.708 90.1473 315.937 90.27C316.169 90.3885 316.444 90.4478 316.762 90.4478C317.185 90.4478 317.557 90.3695 317.879 90.2129C318.205 90.0563 318.473 89.8511 318.685 89.5972C318.897 89.3433 319.038 89.0661 319.11 88.7656L319.44 89.2036C319.385 89.4152 319.284 89.6331 319.136 89.8574C318.992 90.0775 318.804 90.2848 318.571 90.4795C318.338 90.6699 318.063 90.8265 317.746 90.9492C317.432 91.0677 317.077 91.127 316.679 91.127C316.231 91.127 315.839 91.0423 315.505 90.873C315.175 90.7038 314.917 90.4731 314.73 90.1812C314.549 89.8849 314.458 89.5506 314.458 89.1782C314.458 88.8397 314.529 88.5371 314.673 88.2705C314.817 87.9997 315.025 87.7712 315.295 87.585C315.57 87.3945 315.901 87.2507 316.286 87.1533C316.675 87.0518 317.111 87.001 317.593 87.001H319.174ZM326.188 89.4131V84.1318H326.95V91H326.22L326.188 89.4131ZM326.328 88.1436L326.721 88.1309C326.721 88.5625 326.67 88.9603 326.569 89.3242C326.467 89.6882 326.309 90.0055 326.093 90.2764C325.877 90.5472 325.598 90.7567 325.255 90.9048C324.912 91.0529 324.5 91.127 324.017 91.127C323.683 91.127 323.376 91.0804 323.097 90.9873C322.822 90.89 322.585 90.7376 322.386 90.5303C322.187 90.3229 322.032 90.0542 321.922 89.7241C321.817 89.394 321.764 88.9941 321.764 88.5244V84.1318H322.519V88.5371C322.519 88.9053 322.559 89.2121 322.64 89.4575C322.724 89.703 322.839 89.8997 322.982 90.0479C323.131 90.196 323.3 90.3018 323.49 90.3652C323.681 90.4287 323.886 90.4604 324.106 90.4604C324.665 90.4604 325.105 90.3525 325.426 90.1367C325.752 89.9209 325.983 89.6374 326.118 89.2861C326.258 88.9307 326.328 88.5498 326.328 88.1436ZM329.692 85.5981V91H328.937V84.1318H329.66L329.692 85.5981ZM329.521 87.1406L329.184 86.9502C329.209 86.5439 329.292 86.1631 329.432 85.8076C329.571 85.4521 329.76 85.139 329.997 84.8682C330.238 84.5973 330.519 84.3857 330.841 84.2334C331.167 84.0811 331.526 84.0049 331.92 84.0049C332.263 84.0049 332.569 84.0514 332.84 84.1445C333.111 84.2376 333.342 84.3857 333.532 84.5889C333.723 84.792 333.867 85.0522 333.964 85.3696C334.065 85.687 334.116 86.0742 334.116 86.5312V91H333.354V86.5249C333.354 86.0509 333.289 85.6807 333.158 85.4141C333.027 85.1432 332.84 84.9507 332.599 84.8364C332.358 84.7222 332.072 84.665 331.742 84.665C331.378 84.665 331.059 84.7454 330.784 84.9062C330.513 85.0628 330.284 85.2681 330.098 85.522C329.916 85.7716 329.777 86.0404 329.679 86.3281C329.582 86.6117 329.529 86.8825 329.521 87.1406ZM70.0156 100.598V106H69.2603V99.1318H69.9839L70.0156 100.598ZM69.8442 102.141L69.5078 101.95C69.5332 101.544 69.6157 101.163 69.7554 100.808C69.895 100.452 70.0833 100.139 70.3203 99.8682C70.5615 99.5973 70.8429 99.3857 71.1646 99.2334C71.4904 99.0811 71.8501 99.0049 72.2437 99.0049C72.5864 99.0049 72.8932 99.0514 73.1641 99.1445C73.4349 99.2376 73.6655 99.3857 73.856 99.5889C74.0464 99.792 74.1903 100.052 74.2876 100.37C74.3892 100.687 74.4399 101.074 74.4399 101.531V106H73.6782V101.525C73.6782 101.051 73.6126 100.681 73.4814 100.414C73.3503 100.143 73.1641 99.9507 72.9229 99.8364C72.6816 99.7222 72.396 99.665 72.0659 99.665C71.702 99.665 71.3825 99.7454 71.1074 99.9062C70.8366 100.063 70.6081 100.268 70.4219 100.522C70.2399 100.772 70.1003 101.04 70.0029 101.328C69.9056 101.612 69.8527 101.882 69.8442 102.141ZM75.9888 102.674V102.464C75.9888 101.965 76.0607 101.504 76.2046 101.081C76.3485 100.657 76.5537 100.291 76.8203 99.9824C77.0911 99.6735 77.4149 99.4344 77.7915 99.2651C78.1681 99.0916 78.5871 99.0049 79.0483 99.0049C79.5138 99.0049 79.9349 99.0916 80.3115 99.2651C80.6882 99.4344 81.0119 99.6735 81.2827 99.9824C81.5535 100.291 81.7609 100.657 81.9048 101.081C82.0487 101.504 82.1206 101.965 82.1206 102.464V102.674C82.1206 103.173 82.0487 103.634 81.9048 104.058C81.7609 104.477 81.5535 104.84 81.2827 105.149C81.0161 105.458 80.6945 105.7 80.3179 105.873C79.9412 106.042 79.5223 106.127 79.061 106.127C78.5955 106.127 78.1745 106.042 77.7979 105.873C77.4212 105.7 77.0975 105.458 76.8267 105.149C76.5558 104.84 76.3485 104.477 76.2046 104.058C76.0607 103.634 75.9888 103.173 75.9888 102.674ZM76.7441 102.464V102.674C76.7441 103.05 76.7949 103.408 76.8965 103.747C76.998 104.081 77.1462 104.379 77.3408 104.642C77.5355 104.9 77.7767 105.103 78.0645 105.251C78.3522 105.399 78.6844 105.473 79.061 105.473C79.4334 105.473 79.7614 105.399 80.0449 105.251C80.3327 105.103 80.5739 104.9 80.7686 104.642C80.9632 104.379 81.1092 104.081 81.2065 103.747C81.3081 103.408 81.3589 103.05 81.3589 102.674V102.464C81.3589 102.092 81.3081 101.739 81.2065 101.404C81.1092 101.07 80.9611 100.772 80.7622 100.509C80.5675 100.247 80.3263 100.04 80.0386 99.8872C79.7508 99.7349 79.4207 99.6587 79.0483 99.6587C78.6759 99.6587 78.3459 99.7349 78.0581 99.8872C77.7746 100.04 77.5334 100.247 77.3345 100.509C77.1398 100.772 76.9917 101.07 76.8901 101.404C76.7928 101.739 76.7441 102.092 76.7441 102.464ZM87.6177 100.452V108.641H86.856V99.1318H87.5669L87.6177 100.452ZM92.3911 102.502V102.636C92.3911 103.148 92.3319 103.618 92.2134 104.045C92.0949 104.472 91.9235 104.843 91.6992 105.156C91.4792 105.465 91.2062 105.704 90.8804 105.873C90.5545 106.042 90.1842 106.127 89.7695 106.127C89.359 106.127 88.993 106.063 88.6714 105.937C88.3498 105.81 88.0726 105.63 87.8398 105.397C87.6113 105.16 87.4272 104.885 87.2876 104.572C87.1522 104.254 87.057 103.907 87.002 103.531V101.772C87.0654 101.358 87.1691 100.981 87.313 100.643C87.4569 100.304 87.641 100.012 87.8652 99.7666C88.0938 99.5212 88.3646 99.3328 88.6777 99.2017C88.9909 99.0705 89.3485 99.0049 89.7505 99.0049C90.1694 99.0049 90.5418 99.0874 90.8677 99.2524C91.1978 99.4132 91.4749 99.6481 91.6992 99.957C91.9277 100.262 92.0991 100.63 92.2134 101.062C92.3319 101.489 92.3911 101.969 92.3911 102.502ZM91.6294 102.636V102.502C91.6294 102.1 91.5871 101.728 91.5024 101.385C91.422 101.042 91.2972 100.744 91.1279 100.49C90.9629 100.232 90.7513 100.031 90.4932 99.8872C90.2393 99.7433 89.9367 99.6714 89.5854 99.6714C89.2215 99.6714 88.9105 99.7327 88.6523 99.8555C88.3984 99.974 88.1868 100.133 88.0176 100.332C87.8483 100.526 87.715 100.74 87.6177 100.973C87.5203 101.205 87.4484 101.434 87.4019 101.658V103.683C87.4823 104.005 87.6113 104.303 87.7891 104.578C87.9668 104.849 88.2038 105.067 88.5 105.232C88.8005 105.393 89.1665 105.473 89.5981 105.473C89.9451 105.473 90.2456 105.401 90.4995 105.257C90.7534 105.113 90.9629 104.912 91.1279 104.654C91.2972 104.396 91.422 104.096 91.5024 103.753C91.5871 103.41 91.6294 103.038 91.6294 102.636ZM98.4785 104.413V99.1318H99.2402V106H98.5103L98.4785 104.413ZM98.6182 103.144L99.0117 103.131C99.0117 103.562 98.9609 103.96 98.8594 104.324C98.7578 104.688 98.5991 105.006 98.3833 105.276C98.1675 105.547 97.8882 105.757 97.5454 105.905C97.2026 106.053 96.79 106.127 96.3076 106.127C95.9733 106.127 95.6665 106.08 95.3872 105.987C95.1121 105.89 94.8752 105.738 94.6763 105.53C94.4774 105.323 94.3229 105.054 94.2129 104.724C94.1071 104.394 94.0542 103.994 94.0542 103.524V99.1318H94.8096V103.537C94.8096 103.905 94.8498 104.212 94.9302 104.458C95.0148 104.703 95.1291 104.9 95.2729 105.048C95.4211 105.196 95.5903 105.302 95.7808 105.365C95.9712 105.429 96.1764 105.46 96.3965 105.46C96.9551 105.46 97.3952 105.353 97.7168 105.137C98.0426 104.921 98.2733 104.637 98.4087 104.286C98.5483 103.931 98.6182 103.55 98.6182 103.144ZM103.88 106.127C103.432 106.127 103.019 106.044 102.643 105.879C102.27 105.714 101.944 105.482 101.665 105.181C101.39 104.881 101.176 104.525 101.024 104.115C100.876 103.7 100.802 103.247 100.802 102.756V102.483C100.802 101.954 100.88 101.476 101.037 101.049C101.193 100.621 101.409 100.255 101.684 99.9507C101.959 99.646 102.272 99.4132 102.624 99.2524C102.979 99.0874 103.351 99.0049 103.741 99.0049C104.177 99.0049 104.564 99.0832 104.902 99.2397C105.241 99.3921 105.524 99.61 105.753 99.8936C105.986 100.173 106.161 100.505 106.28 100.89C106.398 101.271 106.458 101.692 106.458 102.153V102.617H101.259V101.969H105.702V101.88C105.694 101.495 105.615 101.136 105.467 100.801C105.323 100.463 105.108 100.188 104.82 99.9761C104.532 99.7645 104.172 99.6587 103.741 99.6587C103.419 99.6587 103.123 99.7264 102.852 99.8618C102.585 99.9972 102.355 100.192 102.16 100.446C101.97 100.695 101.822 100.994 101.716 101.341C101.614 101.684 101.563 102.064 101.563 102.483V102.756C101.563 103.137 101.618 103.493 101.729 103.823C101.843 104.149 102.004 104.436 102.211 104.686C102.423 104.936 102.672 105.13 102.96 105.27C103.248 105.41 103.565 105.479 103.912 105.479C104.318 105.479 104.678 105.405 104.991 105.257C105.304 105.105 105.586 104.866 105.835 104.54L106.312 104.908C106.163 105.128 105.977 105.331 105.753 105.518C105.533 105.704 105.268 105.852 104.959 105.962C104.651 106.072 104.291 106.127 103.88 106.127ZM112.418 104.667V96.25H113.18V106H112.469L112.418 104.667ZM107.651 102.636V102.502C107.651 101.969 107.712 101.489 107.835 101.062C107.958 100.63 108.133 100.262 108.362 99.957C108.595 99.6481 108.874 99.4132 109.2 99.2524C109.526 99.0874 109.894 99.0049 110.304 99.0049C110.706 99.0049 111.062 99.0705 111.371 99.2017C111.68 99.3328 111.944 99.5212 112.164 99.7666C112.388 100.012 112.568 100.304 112.704 100.643C112.843 100.981 112.945 101.358 113.008 101.772V103.467C112.958 103.857 112.864 104.214 112.729 104.54C112.594 104.862 112.414 105.143 112.189 105.384C111.965 105.621 111.694 105.805 111.377 105.937C111.064 106.063 110.702 106.127 110.292 106.127C109.885 106.127 109.519 106.042 109.193 105.873C108.868 105.704 108.59 105.465 108.362 105.156C108.133 104.843 107.958 104.472 107.835 104.045C107.712 103.618 107.651 103.148 107.651 102.636ZM108.413 102.502V102.636C108.413 103.038 108.453 103.41 108.533 103.753C108.614 104.096 108.736 104.394 108.901 104.648C109.066 104.902 109.276 105.101 109.53 105.245C109.784 105.389 110.084 105.46 110.431 105.46C110.867 105.46 111.233 105.378 111.529 105.213C111.826 105.044 112.062 104.821 112.24 104.546C112.418 104.267 112.547 103.962 112.627 103.632V101.658C112.577 101.434 112.503 101.205 112.405 100.973C112.308 100.74 112.175 100.526 112.005 100.332C111.84 100.133 111.629 99.974 111.371 99.8555C111.117 99.7327 110.808 99.6714 110.444 99.6714C110.093 99.6714 109.79 99.7433 109.536 99.8872C109.282 100.031 109.071 100.232 108.901 100.49C108.736 100.744 108.614 101.042 108.533 101.385C108.453 101.728 108.413 102.1 108.413 102.502ZM117.833 106.127C117.384 106.127 116.971 106.044 116.595 105.879C116.222 105.714 115.896 105.482 115.617 105.181C115.342 104.881 115.128 104.525 114.976 104.115C114.828 103.7 114.754 103.247 114.754 102.756V102.483C114.754 101.954 114.832 101.476 114.989 101.049C115.145 100.621 115.361 100.255 115.636 99.9507C115.911 99.646 116.224 99.4132 116.576 99.2524C116.931 99.0874 117.304 99.0049 117.693 99.0049C118.129 99.0049 118.516 99.0832 118.854 99.2397C119.193 99.3921 119.477 99.61 119.705 99.8936C119.938 100.173 120.113 100.505 120.232 100.89C120.35 101.271 120.41 101.692 120.41 102.153V102.617H115.211V101.969H119.654V101.88C119.646 101.495 119.568 101.136 119.419 100.801C119.276 100.463 119.06 100.188 118.772 99.9761C118.484 99.7645 118.125 99.6587 117.693 99.6587C117.371 99.6587 117.075 99.7264 116.804 99.8618C116.538 99.9972 116.307 100.192 116.112 100.446C115.922 100.695 115.774 100.994 115.668 101.341C115.566 101.684 115.516 102.064 115.516 102.483V102.756C115.516 103.137 115.571 103.493 115.681 103.823C115.795 104.149 115.956 104.436 116.163 104.686C116.375 104.936 116.624 105.13 116.912 105.27C117.2 105.41 117.517 105.479 117.864 105.479C118.271 105.479 118.63 105.405 118.943 105.257C119.257 105.105 119.538 104.866 119.788 104.54L120.264 104.908C120.116 105.128 119.929 105.331 119.705 105.518C119.485 105.704 119.221 105.852 118.912 105.962C118.603 106.072 118.243 106.127 117.833 106.127ZM127.614 105.473C127.936 105.473 128.236 105.414 128.516 105.295C128.799 105.173 129.032 104.993 129.214 104.756C129.4 104.515 129.506 104.221 129.531 103.874H130.255C130.234 104.309 130.1 104.699 129.855 105.042C129.614 105.38 129.296 105.647 128.903 105.841C128.514 106.032 128.084 106.127 127.614 106.127C127.136 106.127 126.713 106.04 126.345 105.867C125.981 105.693 125.676 105.452 125.431 105.143C125.185 104.83 124.999 104.466 124.872 104.051C124.749 103.632 124.688 103.182 124.688 102.699V102.433C124.688 101.95 124.749 101.502 124.872 101.087C124.999 100.668 125.185 100.304 125.431 99.9951C125.676 99.682 125.981 99.4386 126.345 99.2651C126.709 99.0916 127.13 99.0049 127.608 99.0049C128.099 99.0049 128.539 99.1043 128.928 99.3032C129.322 99.5021 129.635 99.7835 129.868 100.147C130.105 100.511 130.234 100.943 130.255 101.442H129.531C129.51 101.074 129.413 100.757 129.239 100.49C129.066 100.224 128.837 100.018 128.554 99.8745C128.27 99.7306 127.955 99.6587 127.608 99.6587C127.219 99.6587 126.886 99.7349 126.611 99.8872C126.336 100.035 126.112 100.241 125.938 100.503C125.769 100.761 125.644 101.057 125.564 101.392C125.484 101.722 125.443 102.069 125.443 102.433V102.699C125.443 103.067 125.481 103.419 125.558 103.753C125.638 104.083 125.763 104.377 125.932 104.635C126.106 104.893 126.33 105.099 126.605 105.251C126.884 105.399 127.221 105.473 127.614 105.473ZM131.366 102.674V102.464C131.366 101.965 131.438 101.504 131.582 101.081C131.725 100.657 131.931 100.291 132.197 99.9824C132.468 99.6735 132.792 99.4344 133.168 99.2651C133.545 99.0916 133.964 99.0049 134.425 99.0049C134.891 99.0049 135.312 99.0916 135.688 99.2651C136.065 99.4344 136.389 99.6735 136.66 99.9824C136.931 100.291 137.138 100.657 137.282 101.081C137.426 101.504 137.498 101.965 137.498 102.464V102.674C137.498 103.173 137.426 103.634 137.282 104.058C137.138 104.477 136.931 104.84 136.66 105.149C136.393 105.458 136.071 105.7 135.695 105.873C135.318 106.042 134.899 106.127 134.438 106.127C133.972 106.127 133.551 106.042 133.175 105.873C132.798 105.7 132.474 105.458 132.204 105.149C131.933 104.84 131.725 104.477 131.582 104.058C131.438 103.634 131.366 103.173 131.366 102.674ZM132.121 102.464V102.674C132.121 103.05 132.172 103.408 132.273 103.747C132.375 104.081 132.523 104.379 132.718 104.642C132.912 104.9 133.154 105.103 133.441 105.251C133.729 105.399 134.061 105.473 134.438 105.473C134.81 105.473 135.138 105.399 135.422 105.251C135.71 105.103 135.951 104.9 136.146 104.642C136.34 104.379 136.486 104.081 136.583 103.747C136.685 103.408 136.736 103.05 136.736 102.674V102.464C136.736 102.092 136.685 101.739 136.583 101.404C136.486 101.07 136.338 100.772 136.139 100.509C135.944 100.247 135.703 100.04 135.416 99.8872C135.128 99.7349 134.798 99.6587 134.425 99.6587C134.053 99.6587 133.723 99.7349 133.435 99.8872C133.152 100.04 132.91 100.247 132.711 100.509C132.517 100.772 132.369 101.07 132.267 101.404C132.17 101.739 132.121 102.092 132.121 102.464ZM139.827 100.598V106H139.072V99.1318H139.795L139.827 100.598ZM139.656 102.141L139.319 101.95C139.345 101.544 139.427 101.163 139.567 100.808C139.707 100.452 139.895 100.139 140.132 99.8682C140.373 99.5973 140.654 99.3857 140.976 99.2334C141.302 99.0811 141.662 99.0049 142.055 99.0049C142.398 99.0049 142.705 99.0514 142.976 99.1445C143.246 99.2376 143.477 99.3857 143.667 99.5889C143.858 99.792 144.002 100.052 144.099 100.37C144.201 100.687 144.251 101.074 144.251 101.531V106H143.49V101.525C143.49 101.051 143.424 100.681 143.293 100.414C143.162 100.143 142.976 99.9507 142.734 99.8364C142.493 99.7222 142.208 99.665 141.877 99.665C141.514 99.665 141.194 99.7454 140.919 99.9062C140.648 100.063 140.42 100.268 140.233 100.522C140.051 100.772 139.912 101.04 139.814 101.328C139.717 101.612 139.664 101.882 139.656 102.141ZM147.432 106H146.676V98.4082C146.676 97.9131 146.767 97.4963 146.949 97.1577C147.135 96.8149 147.398 96.5568 147.736 96.3833C148.079 96.2056 148.485 96.1167 148.955 96.1167C149.239 96.1167 149.526 96.1484 149.818 96.2119C150.11 96.2754 150.404 96.3685 150.701 96.4912L150.58 97.1514C150.356 97.054 150.121 96.9736 149.875 96.9102C149.63 96.8467 149.338 96.8149 149 96.8149C148.483 96.8149 148.092 96.9504 147.825 97.2212C147.563 97.492 147.432 97.8877 147.432 98.4082V106ZM149.038 99.1318V99.7539H145.534V99.1318H149.038ZM151.113 99.1318V106H150.358V99.1318H151.113ZM153.97 100.268V106H153.214V99.1318H153.951L153.97 100.268ZM156.401 99.0811L156.382 99.7793C156.297 99.7666 156.215 99.756 156.134 99.7476C156.054 99.7391 155.967 99.7349 155.874 99.7349C155.544 99.7349 155.254 99.7962 155.004 99.9189C154.759 100.037 154.552 100.205 154.382 100.42C154.213 100.632 154.084 100.882 153.995 101.169C153.906 101.453 153.855 101.758 153.843 102.083L153.563 102.191C153.563 101.743 153.61 101.326 153.703 100.941C153.796 100.556 153.938 100.219 154.128 99.9316C154.323 99.6396 154.566 99.4132 154.858 99.2524C155.155 99.0874 155.502 99.0049 155.899 99.0049C155.997 99.0049 156.092 99.0133 156.185 99.0303C156.282 99.043 156.354 99.0599 156.401 99.0811ZM158.312 100.554V106H157.55V99.1318H158.28L158.312 100.554ZM158.172 102.141L157.804 101.95C157.829 101.544 157.905 101.163 158.032 100.808C158.163 100.452 158.345 100.139 158.578 99.8682C158.811 99.5973 159.09 99.3857 159.416 99.2334C159.742 99.0811 160.112 99.0049 160.527 99.0049C160.861 99.0049 161.164 99.0514 161.435 99.1445C161.71 99.2334 161.942 99.3752 162.133 99.5698C162.327 99.7603 162.478 100.01 162.583 100.319C162.689 100.628 162.742 100.998 162.742 101.43V106H161.987V101.455C161.987 100.998 161.915 100.64 161.771 100.382C161.631 100.124 161.435 99.9401 161.181 99.8301C160.931 99.7201 160.641 99.665 160.311 99.665C159.922 99.665 159.592 99.7454 159.321 99.9062C159.054 100.063 158.836 100.268 158.667 100.522C158.502 100.772 158.379 101.04 158.299 101.328C158.218 101.612 158.176 101.882 158.172 102.141ZM162.736 101.544L162.228 101.557C162.249 101.222 162.325 100.903 162.457 100.598C162.592 100.293 162.776 100.023 163.009 99.7856C163.242 99.5444 163.519 99.354 163.84 99.2144C164.166 99.0747 164.532 99.0049 164.938 99.0049C165.294 99.0049 165.611 99.0535 165.891 99.1509C166.17 99.244 166.405 99.3942 166.595 99.6016C166.79 99.8047 166.938 100.065 167.04 100.382C167.141 100.7 167.192 101.081 167.192 101.525V106H166.43V101.519C166.43 101.032 166.358 100.655 166.214 100.389C166.075 100.118 165.88 99.9295 165.63 99.8237C165.381 99.7179 165.089 99.665 164.754 99.665C164.424 99.6693 164.134 99.7306 163.885 99.8491C163.635 99.9634 163.426 100.116 163.256 100.306C163.091 100.492 162.964 100.693 162.875 100.909C162.791 101.125 162.744 101.337 162.736 101.544ZM173.298 104.769V101.227C173.298 100.901 173.231 100.619 173.095 100.382C172.96 100.145 172.761 99.9634 172.499 99.8364C172.236 99.7095 171.912 99.646 171.527 99.646C171.172 99.646 170.854 99.7095 170.575 99.8364C170.3 99.9591 170.082 100.126 169.921 100.338C169.765 100.545 169.687 100.776 169.687 101.03L168.925 101.023C168.925 100.765 168.988 100.516 169.115 100.274C169.242 100.033 169.422 99.8174 169.655 99.627C169.888 99.4365 170.165 99.2863 170.486 99.1763C170.812 99.062 171.17 99.0049 171.559 99.0049C172.05 99.0049 172.482 99.0874 172.854 99.2524C173.231 99.4175 173.525 99.665 173.736 99.9951C173.948 100.325 174.054 100.74 174.054 101.239V104.559C174.054 104.796 174.071 105.042 174.104 105.295C174.143 105.549 174.195 105.759 174.263 105.924V106H173.457C173.406 105.848 173.366 105.657 173.336 105.429C173.311 105.196 173.298 104.976 173.298 104.769ZM173.476 102.001L173.489 102.585H171.997C171.608 102.585 171.259 102.621 170.95 102.693C170.645 102.761 170.387 102.862 170.175 102.998C169.964 103.129 169.801 103.287 169.687 103.474C169.576 103.66 169.521 103.871 169.521 104.108C169.521 104.354 169.583 104.578 169.706 104.781C169.833 104.984 170.01 105.147 170.239 105.27C170.472 105.389 170.747 105.448 171.064 105.448C171.487 105.448 171.86 105.369 172.181 105.213C172.507 105.056 172.776 104.851 172.987 104.597C173.199 104.343 173.341 104.066 173.413 103.766L173.743 104.204C173.688 104.415 173.586 104.633 173.438 104.857C173.294 105.077 173.106 105.285 172.873 105.479C172.64 105.67 172.365 105.826 172.048 105.949C171.735 106.068 171.379 106.127 170.981 106.127C170.533 106.127 170.141 106.042 169.807 105.873C169.477 105.704 169.219 105.473 169.033 105.181C168.851 104.885 168.76 104.551 168.76 104.178C168.76 103.84 168.832 103.537 168.976 103.271C169.119 103 169.327 102.771 169.598 102.585C169.873 102.395 170.203 102.251 170.588 102.153C170.977 102.052 171.413 102.001 171.896 102.001H173.476ZM176.847 100.268V106H176.091V99.1318H176.828L176.847 100.268ZM179.278 99.0811L179.259 99.7793C179.174 99.7666 179.092 99.756 179.011 99.7476C178.931 99.7391 178.844 99.7349 178.751 99.7349C178.421 99.7349 178.131 99.7962 177.881 99.9189C177.636 100.037 177.429 100.205 177.259 100.42C177.09 100.632 176.961 100.882 176.872 101.169C176.783 101.453 176.732 101.758 176.72 102.083L176.44 102.191C176.44 101.743 176.487 101.326 176.58 100.941C176.673 100.556 176.815 100.219 177.005 99.9316C177.2 99.6396 177.443 99.4132 177.735 99.2524C178.032 99.0874 178.379 99.0049 178.776 99.0049C178.874 99.0049 178.969 99.0133 179.062 99.0303C179.159 99.043 179.231 99.0599 179.278 99.0811ZM186.298 106.127C185.85 106.127 185.437 106.044 185.061 105.879C184.688 105.714 184.362 105.482 184.083 105.181C183.808 104.881 183.594 104.525 183.442 104.115C183.294 103.7 183.22 103.247 183.22 102.756V102.483C183.22 101.954 183.298 101.476 183.455 101.049C183.611 100.621 183.827 100.255 184.102 99.9507C184.377 99.646 184.69 99.4132 185.042 99.2524C185.397 99.0874 185.769 99.0049 186.159 99.0049C186.595 99.0049 186.982 99.0832 187.32 99.2397C187.659 99.3921 187.942 99.61 188.171 99.8936C188.404 100.173 188.579 100.505 188.698 100.89C188.816 101.271 188.875 101.692 188.875 102.153V102.617H183.677V101.969H188.12V101.88C188.112 101.495 188.033 101.136 187.885 100.801C187.741 100.463 187.526 100.188 187.238 99.9761C186.95 99.7645 186.59 99.6587 186.159 99.6587C185.837 99.6587 185.541 99.7264 185.27 99.8618C185.003 99.9972 184.773 100.192 184.578 100.446C184.388 100.695 184.24 100.994 184.134 101.341C184.032 101.684 183.981 102.064 183.981 102.483V102.756C183.981 103.137 184.036 103.493 184.146 103.823C184.261 104.149 184.422 104.436 184.629 104.686C184.84 104.936 185.09 105.13 185.378 105.27C185.666 105.41 185.983 105.479 186.33 105.479C186.736 105.479 187.096 105.405 187.409 105.257C187.722 105.105 188.004 104.866 188.253 104.54L188.729 104.908C188.581 105.128 188.395 105.331 188.171 105.518C187.951 105.704 187.686 105.852 187.377 105.962C187.069 106.072 186.709 106.127 186.298 106.127ZM191.218 96.25V106H190.462V96.25H191.218ZM199.121 106.127C198.672 106.127 198.259 106.044 197.883 105.879C197.51 105.714 197.185 105.482 196.905 105.181C196.63 104.881 196.417 104.525 196.264 104.115C196.116 103.7 196.042 103.247 196.042 102.756V102.483C196.042 101.954 196.12 101.476 196.277 101.049C196.433 100.621 196.649 100.255 196.924 99.9507C197.199 99.646 197.513 99.4132 197.864 99.2524C198.219 99.0874 198.592 99.0049 198.981 99.0049C199.417 99.0049 199.804 99.0832 200.143 99.2397C200.481 99.3921 200.765 99.61 200.993 99.8936C201.226 100.173 201.402 100.505 201.52 100.89C201.639 101.271 201.698 101.692 201.698 102.153V102.617H196.499V101.969H200.942V101.88C200.934 101.495 200.856 101.136 200.708 100.801C200.564 100.463 200.348 100.188 200.06 99.9761C199.772 99.7645 199.413 99.6587 198.981 99.6587C198.659 99.6587 198.363 99.7264 198.092 99.8618C197.826 99.9972 197.595 100.192 197.4 100.446C197.21 100.695 197.062 100.994 196.956 101.341C196.854 101.684 196.804 102.064 196.804 102.483V102.756C196.804 103.137 196.859 103.493 196.969 103.823C197.083 104.149 197.244 104.436 197.451 104.686C197.663 104.936 197.912 105.13 198.2 105.27C198.488 105.41 198.805 105.479 199.152 105.479C199.559 105.479 199.918 105.405 200.231 105.257C200.545 105.105 200.826 104.866 201.076 104.54L201.552 104.908C201.404 105.128 201.217 105.331 200.993 105.518C200.773 105.704 200.509 105.852 200.2 105.962C199.891 106.072 199.531 106.127 199.121 106.127ZM203.951 100.598V106H203.196V99.1318H203.919L203.951 100.598ZM203.78 102.141L203.443 101.95C203.469 101.544 203.551 101.163 203.691 100.808C203.831 100.452 204.019 100.139 204.256 99.8682C204.497 99.5973 204.778 99.3857 205.1 99.2334C205.426 99.0811 205.786 99.0049 206.179 99.0049C206.522 99.0049 206.829 99.0514 207.1 99.1445C207.37 99.2376 207.601 99.3857 207.792 99.5889C207.982 99.792 208.126 100.052 208.223 100.37C208.325 100.687 208.375 101.074 208.375 101.531V106H207.614V101.525C207.614 101.051 207.548 100.681 207.417 100.414C207.286 100.143 207.1 99.9507 206.858 99.8364C206.617 99.7222 206.332 99.665 206.001 99.665C205.638 99.665 205.318 99.7454 205.043 99.9062C204.772 100.063 204.544 100.268 204.357 100.522C204.175 100.772 204.036 101.04 203.938 101.328C203.841 101.612 203.788 101.882 203.78 102.141ZM212.368 105.27L214.571 99.1318H215.352L212.781 106H212.229L212.368 105.27ZM210.375 99.1318L212.603 105.289L212.724 106H212.165L209.588 99.1318H210.375ZM217.446 99.1318V106H216.691V99.1318H217.446ZM216.558 97.145C216.558 97.0011 216.602 96.8805 216.691 96.7832C216.784 96.6816 216.911 96.6309 217.072 96.6309C217.233 96.6309 217.36 96.6816 217.453 96.7832C217.55 96.8805 217.599 97.0011 217.599 97.145C217.599 97.2847 217.55 97.4053 217.453 97.5068C217.36 97.6042 217.233 97.6528 217.072 97.6528C216.911 97.6528 216.784 97.6042 216.691 97.5068C216.602 97.4053 216.558 97.2847 216.558 97.145ZM219.103 102.674V102.464C219.103 101.965 219.175 101.504 219.319 101.081C219.463 100.657 219.668 100.291 219.935 99.9824C220.205 99.6735 220.529 99.4344 220.906 99.2651C221.282 99.0916 221.701 99.0049 222.163 99.0049C222.628 99.0049 223.049 99.0916 223.426 99.2651C223.802 99.4344 224.126 99.6735 224.397 99.9824C224.668 100.291 224.875 100.657 225.019 101.081C225.163 101.504 225.235 101.965 225.235 102.464V102.674C225.235 103.173 225.163 103.634 225.019 104.058C224.875 104.477 224.668 104.84 224.397 105.149C224.13 105.458 223.809 105.7 223.432 105.873C223.056 106.042 222.637 106.127 222.175 106.127C221.71 106.127 221.289 106.042 220.912 105.873C220.535 105.7 220.212 105.458 219.941 105.149C219.67 104.84 219.463 104.477 219.319 104.058C219.175 103.634 219.103 103.173 219.103 102.674ZM219.858 102.464V102.674C219.858 103.05 219.909 103.408 220.011 103.747C220.112 104.081 220.26 104.379 220.455 104.642C220.65 104.9 220.891 105.103 221.179 105.251C221.466 105.399 221.799 105.473 222.175 105.473C222.548 105.473 222.876 105.399 223.159 105.251C223.447 105.103 223.688 104.9 223.883 104.642C224.077 104.379 224.223 104.081 224.321 103.747C224.422 103.408 224.473 103.05 224.473 102.674V102.464C224.473 102.092 224.422 101.739 224.321 101.404C224.223 101.07 224.075 100.772 223.876 100.509C223.682 100.247 223.441 100.04 223.153 99.8872C222.865 99.7349 222.535 99.6587 222.163 99.6587C221.79 99.6587 221.46 99.7349 221.172 99.8872C220.889 100.04 220.648 100.247 220.449 100.509C220.254 100.772 220.106 101.07 220.004 101.404C219.907 101.739 219.858 102.092 219.858 102.464ZM234.445 104.667V96.25H235.207V106H234.496L234.445 104.667ZM229.678 102.636V102.502C229.678 101.969 229.74 101.489 229.862 101.062C229.985 100.63 230.161 100.262 230.389 99.957C230.622 99.6481 230.901 99.4132 231.227 99.2524C231.553 99.0874 231.921 99.0049 232.332 99.0049C232.734 99.0049 233.089 99.0705 233.398 99.2017C233.707 99.3328 233.971 99.5212 234.191 99.7666C234.416 100.012 234.596 100.304 234.731 100.643C234.871 100.981 234.972 101.358 235.036 101.772V103.467C234.985 103.857 234.892 104.214 234.756 104.54C234.621 104.862 234.441 105.143 234.217 105.384C233.993 105.621 233.722 105.805 233.404 105.937C233.091 106.063 232.729 106.127 232.319 106.127C231.913 106.127 231.547 106.042 231.221 105.873C230.895 105.704 230.618 105.465 230.389 105.156C230.161 104.843 229.985 104.472 229.862 104.045C229.74 103.618 229.678 103.148 229.678 102.636ZM230.44 102.502V102.636C230.44 103.038 230.48 103.41 230.561 103.753C230.641 104.096 230.764 104.394 230.929 104.648C231.094 104.902 231.303 105.101 231.557 105.245C231.811 105.389 232.111 105.46 232.458 105.46C232.894 105.46 233.26 105.378 233.557 105.213C233.853 105.044 234.09 104.821 234.268 104.546C234.445 104.267 234.574 103.962 234.655 103.632V101.658C234.604 101.434 234.53 101.205 234.433 100.973C234.335 100.74 234.202 100.526 234.033 100.332C233.868 100.133 233.656 99.974 233.398 99.8555C233.144 99.7327 232.835 99.6714 232.471 99.6714C232.12 99.6714 231.817 99.7433 231.563 99.8872C231.31 100.031 231.098 100.232 230.929 100.49C230.764 100.744 230.641 101.042 230.561 101.385C230.48 101.728 230.44 102.1 230.44 102.502ZM239.86 106.127C239.411 106.127 238.999 106.044 238.622 105.879C238.25 105.714 237.924 105.482 237.645 105.181C237.369 104.881 237.156 104.525 237.003 104.115C236.855 103.7 236.781 103.247 236.781 102.756V102.483C236.781 101.954 236.86 101.476 237.016 101.049C237.173 100.621 237.389 100.255 237.664 99.9507C237.939 99.646 238.252 99.4132 238.603 99.2524C238.958 99.0874 239.331 99.0049 239.72 99.0049C240.156 99.0049 240.543 99.0832 240.882 99.2397C241.22 99.3921 241.504 99.61 241.732 99.8936C241.965 100.173 242.141 100.505 242.259 100.89C242.378 101.271 242.437 101.692 242.437 102.153V102.617H237.238V101.969H241.682V101.88C241.673 101.495 241.595 101.136 241.447 100.801C241.303 100.463 241.087 100.188 240.799 99.9761C240.512 99.7645 240.152 99.6587 239.72 99.6587C239.399 99.6587 239.102 99.7264 238.832 99.8618C238.565 99.9972 238.334 100.192 238.14 100.446C237.949 100.695 237.801 100.994 237.695 101.341C237.594 101.684 237.543 102.064 237.543 102.483V102.756C237.543 103.137 237.598 103.493 237.708 103.823C237.822 104.149 237.983 104.436 238.19 104.686C238.402 104.936 238.652 105.13 238.939 105.27C239.227 105.41 239.545 105.479 239.892 105.479C240.298 105.479 240.658 105.405 240.971 105.257C241.284 105.105 241.565 104.866 241.815 104.54L242.291 104.908C242.143 105.128 241.957 105.331 241.732 105.518C241.512 105.704 241.248 105.852 240.939 105.962C240.63 106.072 240.27 106.127 239.86 106.127ZM244.779 96.25V106H244.024V96.25H244.779ZM250.778 100.452V108.641H250.016V99.1318H250.727L250.778 100.452ZM255.551 102.502V102.636C255.551 103.148 255.492 103.618 255.374 104.045C255.255 104.472 255.084 104.843 254.859 105.156C254.639 105.465 254.366 105.704 254.041 105.873C253.715 106.042 253.344 106.127 252.93 106.127C252.519 106.127 252.153 106.063 251.832 105.937C251.51 105.81 251.233 105.63 251 105.397C250.771 105.16 250.587 104.885 250.448 104.572C250.312 104.254 250.217 103.907 250.162 103.531V101.772C250.226 101.358 250.329 100.981 250.473 100.643C250.617 100.304 250.801 100.012 251.025 99.7666C251.254 99.5212 251.525 99.3328 251.838 99.2017C252.151 99.0705 252.509 99.0049 252.911 99.0049C253.33 99.0049 253.702 99.0874 254.028 99.2524C254.358 99.4132 254.635 99.6481 254.859 99.957C255.088 100.262 255.259 100.63 255.374 101.062C255.492 101.489 255.551 101.969 255.551 102.502ZM254.79 102.636V102.502C254.79 102.1 254.747 101.728 254.663 101.385C254.582 101.042 254.457 100.744 254.288 100.49C254.123 100.232 253.911 100.031 253.653 99.8872C253.399 99.7433 253.097 99.6714 252.746 99.6714C252.382 99.6714 252.071 99.7327 251.812 99.8555C251.559 99.974 251.347 100.133 251.178 100.332C251.008 100.526 250.875 100.74 250.778 100.973C250.681 101.205 250.609 101.434 250.562 101.658V103.683C250.642 104.005 250.771 104.303 250.949 104.578C251.127 104.849 251.364 105.067 251.66 105.232C251.961 105.393 252.327 105.473 252.758 105.473C253.105 105.473 253.406 105.401 253.66 105.257C253.914 105.113 254.123 104.912 254.288 104.654C254.457 104.396 254.582 104.096 254.663 103.753C254.747 103.41 254.79 103.038 254.79 102.636ZM259.893 106.127C259.444 106.127 259.032 106.044 258.655 105.879C258.283 105.714 257.957 105.482 257.678 105.181C257.403 104.881 257.189 104.525 257.037 104.115C256.889 103.7 256.814 103.247 256.814 102.756V102.483C256.814 101.954 256.893 101.476 257.049 101.049C257.206 100.621 257.422 100.255 257.697 99.9507C257.972 99.646 258.285 99.4132 258.636 99.2524C258.992 99.0874 259.364 99.0049 259.753 99.0049C260.189 99.0049 260.576 99.0832 260.915 99.2397C261.254 99.3921 261.537 99.61 261.766 99.8936C261.998 100.173 262.174 100.505 262.292 100.89C262.411 101.271 262.47 101.692 262.47 102.153V102.617H257.271V101.969H261.715V101.88C261.706 101.495 261.628 101.136 261.48 100.801C261.336 100.463 261.12 100.188 260.833 99.9761C260.545 99.7645 260.185 99.6587 259.753 99.6587C259.432 99.6587 259.136 99.7264 258.865 99.8618C258.598 99.9972 258.368 100.192 258.173 100.446C257.982 100.695 257.834 100.994 257.729 101.341C257.627 101.684 257.576 102.064 257.576 102.483V102.756C257.576 103.137 257.631 103.493 257.741 103.823C257.855 104.149 258.016 104.436 258.224 104.686C258.435 104.936 258.685 105.13 258.973 105.27C259.26 105.41 259.578 105.479 259.925 105.479C260.331 105.479 260.691 105.405 261.004 105.257C261.317 105.105 261.598 104.866 261.848 104.54L262.324 104.908C262.176 105.128 261.99 105.331 261.766 105.518C261.546 105.704 261.281 105.852 260.972 105.962C260.663 106.072 260.304 106.127 259.893 106.127ZM268.431 104.667V96.25H269.192V106H268.481L268.431 104.667ZM263.664 102.636V102.502C263.664 101.969 263.725 101.489 263.848 101.062C263.97 100.63 264.146 100.262 264.375 99.957C264.607 99.6481 264.887 99.4132 265.212 99.2524C265.538 99.0874 265.906 99.0049 266.317 99.0049C266.719 99.0049 267.074 99.0705 267.383 99.2017C267.692 99.3328 267.957 99.5212 268.177 99.7666C268.401 100.012 268.581 100.304 268.716 100.643C268.856 100.981 268.958 101.358 269.021 101.772V103.467C268.97 103.857 268.877 104.214 268.742 104.54C268.606 104.862 268.426 105.143 268.202 105.384C267.978 105.621 267.707 105.805 267.39 105.937C267.076 106.063 266.715 106.127 266.304 106.127C265.898 106.127 265.532 106.042 265.206 105.873C264.88 105.704 264.603 105.465 264.375 105.156C264.146 104.843 263.97 104.472 263.848 104.045C263.725 103.618 263.664 103.148 263.664 102.636ZM264.425 102.502V102.636C264.425 103.038 264.465 103.41 264.546 103.753C264.626 104.096 264.749 104.394 264.914 104.648C265.079 104.902 265.289 105.101 265.542 105.245C265.796 105.389 266.097 105.46 266.444 105.46C266.88 105.46 267.246 105.378 267.542 105.213C267.838 105.044 268.075 104.821 268.253 104.546C268.431 104.267 268.56 103.962 268.64 103.632V101.658C268.589 101.434 268.515 101.205 268.418 100.973C268.321 100.74 268.187 100.526 268.018 100.332C267.853 100.133 267.641 99.974 267.383 99.8555C267.129 99.7327 266.82 99.6714 266.457 99.6714C266.105 99.6714 265.803 99.7433 265.549 99.8872C265.295 100.031 265.083 100.232 264.914 100.49C264.749 100.744 264.626 101.042 264.546 101.385C264.465 101.728 264.425 102.1 264.425 102.502ZM272.036 99.1318V106H271.281V99.1318H272.036ZM271.147 97.145C271.147 97.0011 271.192 96.8805 271.281 96.7832C271.374 96.6816 271.501 96.6309 271.662 96.6309C271.822 96.6309 271.949 96.6816 272.042 96.7832C272.14 96.8805 272.188 97.0011 272.188 97.145C272.188 97.2847 272.14 97.4053 272.042 97.5068C271.949 97.6042 271.822 97.6528 271.662 97.6528C271.501 97.6528 271.374 97.6042 271.281 97.5068C271.192 97.4053 271.147 97.2847 271.147 97.145ZM278.574 104.667V96.25H279.336V106H278.625L278.574 104.667ZM273.807 102.636V102.502C273.807 101.969 273.868 101.489 273.991 101.062C274.114 100.63 274.29 100.262 274.518 99.957C274.751 99.6481 275.03 99.4132 275.356 99.2524C275.682 99.0874 276.05 99.0049 276.46 99.0049C276.862 99.0049 277.218 99.0705 277.527 99.2017C277.836 99.3328 278.1 99.5212 278.32 99.7666C278.545 100.012 278.724 100.304 278.86 100.643C279 100.981 279.101 101.358 279.165 101.772V103.467C279.114 103.857 279.021 104.214 278.885 104.54C278.75 104.862 278.57 105.143 278.346 105.384C278.121 105.621 277.851 105.805 277.533 105.937C277.22 106.063 276.858 106.127 276.448 106.127C276.042 106.127 275.675 106.042 275.35 105.873C275.024 105.704 274.747 105.465 274.518 105.156C274.29 104.843 274.114 104.472 273.991 104.045C273.868 103.618 273.807 103.148 273.807 102.636ZM274.569 102.502V102.636C274.569 103.038 274.609 103.41 274.689 103.753C274.77 104.096 274.893 104.394 275.058 104.648C275.223 104.902 275.432 105.101 275.686 105.245C275.94 105.389 276.24 105.46 276.587 105.46C277.023 105.46 277.389 105.378 277.686 105.213C277.982 105.044 278.219 104.821 278.396 104.546C278.574 104.267 278.703 103.962 278.784 103.632V101.658C278.733 101.434 278.659 101.205 278.562 100.973C278.464 100.74 278.331 100.526 278.162 100.332C277.997 100.133 277.785 99.974 277.527 99.8555C277.273 99.7327 276.964 99.6714 276.6 99.6714C276.249 99.6714 275.946 99.7433 275.692 99.8872C275.438 100.031 275.227 100.232 275.058 100.49C274.893 100.744 274.77 101.042 274.689 101.385C274.609 101.728 274.569 102.1 274.569 102.502ZM280.917 102.674V102.464C280.917 101.965 280.988 101.504 281.132 101.081C281.276 100.657 281.481 100.291 281.748 99.9824C282.019 99.6735 282.343 99.4344 282.719 99.2651C283.096 99.0916 283.515 99.0049 283.976 99.0049C284.442 99.0049 284.863 99.0916 285.239 99.2651C285.616 99.4344 285.94 99.6735 286.21 99.9824C286.481 100.291 286.689 100.657 286.833 101.081C286.976 101.504 287.048 101.965 287.048 102.464V102.674C287.048 103.173 286.976 103.634 286.833 104.058C286.689 104.477 286.481 104.84 286.21 105.149C285.944 105.458 285.622 105.7 285.246 105.873C284.869 106.042 284.45 106.127 283.989 106.127C283.523 106.127 283.102 106.042 282.726 105.873C282.349 105.7 282.025 105.458 281.754 105.149C281.484 104.84 281.276 104.477 281.132 104.058C280.988 103.634 280.917 103.173 280.917 102.674ZM281.672 102.464V102.674C281.672 103.05 281.723 103.408 281.824 103.747C281.926 104.081 282.074 104.379 282.269 104.642C282.463 104.9 282.704 105.103 282.992 105.251C283.28 105.399 283.612 105.473 283.989 105.473C284.361 105.473 284.689 105.399 284.973 105.251C285.26 105.103 285.502 104.9 285.696 104.642C285.891 104.379 286.037 104.081 286.134 103.747C286.236 103.408 286.287 103.05 286.287 102.674V102.464C286.287 102.092 286.236 101.739 286.134 101.404C286.037 101.07 285.889 100.772 285.69 100.509C285.495 100.247 285.254 100.04 284.966 99.8872C284.679 99.7349 284.348 99.6587 283.976 99.6587C283.604 99.6587 283.274 99.7349 282.986 99.8872C282.702 100.04 282.461 100.247 282.262 100.509C282.068 100.772 281.919 101.07 281.818 101.404C281.721 101.739 281.672 102.092 281.672 102.464ZM288.553 105.537C288.553 105.389 288.599 105.264 288.692 105.162C288.79 105.056 288.921 105.003 289.086 105.003C289.255 105.003 289.389 105.054 289.486 105.156C289.583 105.257 289.632 105.384 289.632 105.537C289.632 105.681 289.583 105.803 289.486 105.905C289.389 106.006 289.255 106.057 289.086 106.057C288.921 106.057 288.79 106.006 288.692 105.905C288.599 105.803 288.553 105.681 288.553 105.537Z" fill="#2E460F"/>
<path d="M31.7031 32.1016V34H24.9004V32.1016H31.7031ZM25.6387 21.2031V34H23.2217V21.2031H25.6387ZM30.8154 26.4854V28.3398H24.9004V26.4854H30.8154ZM31.6768 21.2031V23.1104H24.9004V21.2031H31.6768ZM43.665 21.2031V34H41.2393L35.7988 25.123V34H33.3818V21.2031H35.7988L41.2568 30.0889V21.2031H43.665ZM50.626 31.4951L53.8164 21.2031H56.4971L51.9795 34H50.1953L50.626 31.4951ZM47.6816 21.2031L50.8545 31.4951L51.3115 34H49.5098L45.0098 21.2031H47.6816ZM60.3906 21.2031V34H57.9736V21.2031H60.3906ZM68.248 23.1455L64.6006 34H62.043L66.8242 21.2031H68.459L68.248 23.1455ZM71.2979 34L67.6328 23.1455L67.4131 21.2031H69.0566L73.8643 34H71.2979ZM71.1309 29.2451V31.1523H64.2666V29.2451H71.1309ZM79.0059 34H76.2461L76.2637 32.1016H79.0059C79.75 32.1016 80.374 31.9375 80.8779 31.6094C81.3818 31.2754 81.7627 30.7979 82.0205 30.1768C82.2783 29.5498 82.4072 28.7998 82.4072 27.9268V27.2676C82.4072 26.5938 82.334 25.999 82.1875 25.4834C82.041 24.9678 81.8242 24.5342 81.5371 24.1826C81.2559 23.8311 80.9072 23.5645 80.4912 23.3828C80.0752 23.2012 79.5977 23.1104 79.0586 23.1104H76.1934V21.2031H79.0586C79.9141 21.2031 80.6934 21.3467 81.3965 21.6338C82.1055 21.9209 82.7178 22.334 83.2334 22.873C83.7549 23.4062 84.1533 24.0449 84.4287 24.7891C84.71 25.5332 84.8506 26.3652 84.8506 27.2852V27.9268C84.8506 28.8408 84.71 29.6729 84.4287 30.4229C84.1533 31.167 83.7549 31.8057 83.2334 32.3389C82.7178 32.8721 82.1025 33.2822 81.3877 33.5693C80.6729 33.8564 79.8789 34 79.0059 34ZM77.5996 21.2031V34H75.1826V21.2031H77.5996ZM91.8027 23.1455L88.1553 34H85.5977L90.3789 21.2031H92.0137L91.8027 23.1455ZM94.8525 34L91.1875 23.1455L90.9678 21.2031H92.6113L97.4189 34H94.8525ZM94.6855 29.2451V31.1523H87.8213V29.2451H94.6855ZM105.435 30.6777C105.435 30.4316 105.396 30.2119 105.32 30.0186C105.25 29.8193 105.118 29.6406 104.925 29.4824C104.737 29.3184 104.471 29.1602 104.125 29.0078C103.785 28.8496 103.346 28.6855 102.807 28.5156C102.209 28.3281 101.652 28.1172 101.137 27.8828C100.621 27.6484 100.167 27.376 99.7744 27.0654C99.3877 26.7549 99.0859 26.3975 98.8691 25.9932C98.6523 25.583 98.5439 25.1084 98.5439 24.5693C98.5439 24.042 98.6553 23.5615 98.8779 23.1279C99.1064 22.6943 99.4287 22.3223 99.8447 22.0117C100.261 21.6953 100.75 21.4521 101.312 21.2822C101.881 21.1123 102.508 21.0273 103.193 21.0273C104.143 21.0273 104.963 21.2002 105.654 21.5459C106.352 21.8916 106.891 22.3604 107.271 22.9521C107.652 23.5439 107.843 24.209 107.843 24.9473H105.435C105.435 24.5488 105.35 24.1973 105.18 23.8926C105.016 23.5879 104.764 23.3477 104.424 23.1719C104.09 22.9961 103.668 22.9082 103.158 22.9082C102.666 22.9082 102.256 22.9814 101.928 23.1279C101.605 23.2744 101.362 23.4736 101.198 23.7256C101.04 23.9775 100.961 24.2588 100.961 24.5693C100.961 24.8037 101.017 25.0146 101.128 25.2021C101.239 25.3838 101.406 25.5566 101.629 25.7207C101.852 25.8789 102.127 26.0283 102.455 26.1689C102.789 26.3037 103.176 26.4385 103.615 26.5732C104.318 26.7842 104.934 27.0186 105.461 27.2764C105.994 27.5342 106.437 27.8271 106.788 28.1553C107.146 28.4834 107.412 28.8525 107.588 29.2627C107.77 29.6729 107.86 30.1387 107.86 30.6602C107.86 31.2109 107.752 31.7031 107.535 32.1367C107.318 32.5703 107.008 32.9395 106.604 33.2441C106.199 33.5488 105.713 33.7803 105.145 33.9385C104.582 34.0967 103.952 34.1758 103.255 34.1758C102.634 34.1758 102.019 34.0938 101.409 33.9297C100.806 33.7598 100.258 33.5078 99.7656 33.1738C99.2734 32.834 98.8809 32.4062 98.5879 31.8906C98.2949 31.3691 98.1484 30.7598 98.1484 30.0625H100.574C100.574 30.4668 100.639 30.8125 100.768 31.0996C100.902 31.3809 101.09 31.6123 101.33 31.7939C101.576 31.9697 101.863 32.0986 102.191 32.1807C102.52 32.2627 102.874 32.3037 103.255 32.3037C103.747 32.3037 104.151 32.2363 104.468 32.1016C104.79 31.9609 105.03 31.7676 105.188 31.5215C105.353 31.2754 105.435 30.9941 105.435 30.6777ZM119.295 23.1455L115.647 34H113.09L117.871 21.2031H119.506L119.295 23.1455ZM122.345 34L118.68 23.1455L118.46 21.2031H120.104L124.911 34H122.345ZM122.178 29.2451V31.1523H115.313V29.2451H122.178ZM138.2 29.79H140.617C140.553 30.6455 140.315 31.4043 139.905 32.0664C139.495 32.7227 138.924 33.2383 138.191 33.6133C137.459 33.9883 136.571 34.1758 135.528 34.1758C134.726 34.1758 134.002 34.0352 133.357 33.7539C132.719 33.4668 132.171 33.0596 131.714 32.5322C131.263 31.999 130.917 31.3604 130.677 30.6162C130.437 29.8662 130.316 29.0254 130.316 28.0938V27.1182C130.316 26.1865 130.439 25.3457 130.686 24.5957C130.932 23.8457 131.283 23.207 131.74 22.6797C132.203 22.1465 132.757 21.7363 133.401 21.4492C134.052 21.1621 134.778 21.0186 135.581 21.0186C136.624 21.0186 137.506 21.2119 138.227 21.5986C138.947 21.9795 139.507 22.5039 139.905 23.1719C140.304 23.8398 140.544 24.6074 140.626 25.4746H138.209C138.162 24.9355 138.045 24.4785 137.857 24.1035C137.676 23.7285 137.4 23.4443 137.031 23.251C136.668 23.0518 136.185 22.9521 135.581 22.9521C135.112 22.9521 134.699 23.04 134.342 23.2158C133.99 23.3916 133.697 23.6553 133.463 24.0068C133.229 24.3525 133.053 24.7861 132.936 25.3076C132.818 25.8232 132.76 26.4209 132.76 27.1006V28.0938C132.76 28.7441 132.812 29.3271 132.918 29.8428C133.023 30.3584 133.188 30.7949 133.41 31.1523C133.633 31.5098 133.92 31.7822 134.271 31.9697C134.623 32.1572 135.042 32.251 135.528 32.251C136.12 32.251 136.601 32.1572 136.97 31.9697C137.345 31.7822 137.629 31.5068 137.822 31.1436C138.021 30.7803 138.147 30.3291 138.2 29.79ZM150.61 32.1016V34H144.177V32.1016H150.61ZM144.906 21.2031V34H142.489V21.2031H144.906ZM154.803 21.2031V34H152.386V21.2031H154.803ZM165.895 32.1016V34H159.092V32.1016H165.895ZM159.83 21.2031V34H157.413V21.2031H159.83ZM165.007 26.4854V28.3398H159.092V26.4854H165.007ZM165.868 21.2031V23.1104H159.092V21.2031H165.868ZM177.856 21.2031V34H175.431L169.99 25.123V34H167.573V21.2031H169.99L175.448 30.0889V21.2031H177.856ZM185.547 21.2031V34H183.139V21.2031H185.547ZM189.52 21.2031V23.1104H179.21V21.2031H189.52ZM199.609 32.1016V34H192.807V32.1016H199.609ZM193.545 21.2031V34H191.128V21.2031H193.545ZM198.722 26.4854V28.3398H192.807V26.4854H198.722ZM199.583 21.2031V23.1104H192.807V21.2031H199.583ZM207.985 30.6777C207.985 30.4316 207.947 30.2119 207.871 30.0186C207.801 29.8193 207.669 29.6406 207.476 29.4824C207.288 29.3184 207.021 29.1602 206.676 29.0078C206.336 28.8496 205.896 28.6855 205.357 28.5156C204.76 28.3281 204.203 28.1172 203.688 27.8828C203.172 27.6484 202.718 27.376 202.325 27.0654C201.938 26.7549 201.637 26.3975 201.42 25.9932C201.203 25.583 201.095 25.1084 201.095 24.5693C201.095 24.042 201.206 23.5615 201.429 23.1279C201.657 22.6943 201.979 22.3223 202.396 22.0117C202.812 21.6953 203.301 21.4521 203.863 21.2822C204.432 21.1123 205.059 21.0273 205.744 21.0273C206.693 21.0273 207.514 21.2002 208.205 21.5459C208.902 21.8916 209.441 22.3604 209.822 22.9521C210.203 23.5439 210.394 24.209 210.394 24.9473H207.985C207.985 24.5488 207.9 24.1973 207.73 23.8926C207.566 23.5879 207.314 23.3477 206.975 23.1719C206.641 22.9961 206.219 22.9082 205.709 22.9082C205.217 22.9082 204.807 22.9814 204.479 23.1279C204.156 23.2744 203.913 23.4736 203.749 23.7256C203.591 23.9775 203.512 24.2588 203.512 24.5693C203.512 24.8037 203.567 25.0146 203.679 25.2021C203.79 25.3838 203.957 25.5566 204.18 25.7207C204.402 25.8789 204.678 26.0283 205.006 26.1689C205.34 26.3037 205.727 26.4385 206.166 26.5732C206.869 26.7842 207.484 27.0186 208.012 27.2764C208.545 27.5342 208.987 27.8271 209.339 28.1553C209.696 28.4834 209.963 28.8525 210.139 29.2627C210.32 29.6729 210.411 30.1387 210.411 30.6602C210.411 31.2109 210.303 31.7031 210.086 32.1367C209.869 32.5703 209.559 32.9395 209.154 33.2441C208.75 33.5488 208.264 33.7803 207.695 33.9385C207.133 34.0967 206.503 34.1758 205.806 34.1758C205.185 34.1758 204.569 34.0938 203.96 33.9297C203.356 33.7598 202.809 33.5078 202.316 33.1738C201.824 32.834 201.432 32.4062 201.139 31.8906C200.846 31.3691 200.699 30.7598 200.699 30.0625H203.125C203.125 30.4668 203.189 30.8125 203.318 31.0996C203.453 31.3809 203.641 31.6123 203.881 31.7939C204.127 31.9697 204.414 32.0986 204.742 32.1807C205.07 32.2627 205.425 32.3037 205.806 32.3037C206.298 32.3037 206.702 32.2363 207.019 32.1016C207.341 31.9609 207.581 31.7676 207.739 31.5215C207.903 31.2754 207.985 30.9941 207.985 30.6777Z" fill="#2E460F"/>
</svg>
